<svg width="20" height="21" viewBox="0 0 20 21" fill="none" xmlns="http://www.w3.org/2000/svg">
<g id="Outlined/Cross">
<path id="Union" d="M5.13872 4.75471C4.89464 4.51064 4.49891 4.51064 4.25484 4.75471C4.01076 4.99879 4.01076 5.39452 4.25484 5.6386L9.11619 10.5L4.25484 15.3613C4.01076 15.6054 4.01076 16.0011 4.25484 16.2452C4.49891 16.4893 4.89464 16.4893 5.13872 16.2452L10.0001 11.3838L14.8614 16.2451C15.1054 16.4892 15.5012 16.4892 15.7452 16.2451C15.9893 16.001 15.9893 15.6053 15.7452 15.3612L10.884 10.5L15.7453 5.6386C15.9894 5.39452 15.9894 4.99879 15.7453 4.75471C15.5012 4.51064 15.1055 4.51064 14.8614 4.75471L10.0001 9.61607L5.13872 4.75471Z" fill="#343A40"/>
</g>
</svg>
