<svg width="20" height="21" viewBox="0 0 20 21" fill="none" xmlns="http://www.w3.org/2000/svg">
<g id="Document">
<path id="Stroke 1" opacity="0.4" d="M13.6331 14.3394H6.41309" stroke="#1A73E8" stroke-width="1.5" stroke-linecap="round" stroke-linejoin="round"/>
<path id="Stroke 4" fill-rule="evenodd" clip-rule="evenodd" d="M13.8255 0.865723C13.8255 0.865723 6.14848 0.869723 6.13648 0.869723C3.37648 0.886723 1.66748 2.70272 1.66748 5.47272V14.6687C1.66748 17.4527 3.38948 19.2757 6.17348 19.2757C6.17348 19.2757 13.8495 19.2727 13.8625 19.2727C16.6225 19.2557 18.3325 17.4387 18.3325 14.6687V5.47272C18.3325 2.68872 16.6095 0.865723 13.8255 0.865723Z" stroke="#1A73E8" stroke-width="1.5" stroke-linecap="round" stroke-linejoin="round"/>
<path id="Union" fill-rule="evenodd" clip-rule="evenodd" d="M9.27289 11.4053C9.27289 11.8153 9.61289 12.1553 10.0229 12.1553C10.4329 12.1553 10.7729 11.8153 10.7729 11.4053V7.21521L11.4929 7.93521C11.6429 8.08521 11.8329 8.15521 12.0229 8.15521C12.2129 8.15521 12.4029 8.08521 12.5529 7.93521C12.8429 7.64521 12.8429 7.16521 12.5529 6.87521L10.5889 4.91118C10.5178 4.82931 10.4284 4.76302 10.325 4.72013C10.3153 4.71594 10.3056 4.71196 10.2958 4.70819C10.14 4.64614 9.97001 4.64178 9.81449 4.68667C9.69624 4.72027 9.58499 4.78312 9.49289 4.87521C9.49122 4.87689 9.48955 4.87857 9.4879 4.88025L7.49289 6.87526C7.20289 7.16526 7.20289 7.64526 7.49289 7.93526C7.78289 8.22526 8.26289 8.22526 8.55289 7.93526L9.27289 7.21526V11.4053Z" fill="#292D32"/>
</g>
</svg>
