<svg width="20" height="21" viewBox="0 0 20 21" fill="none" xmlns="http://www.w3.org/2000/svg">
<g id="Document">
<path id="Stroke 1" opacity="0.4" d="M13.6331 14.3394H6.41309" stroke="#1A73E8" stroke-width="1.5" stroke-linecap="round" stroke-linejoin="round"/>
<path id="Stroke 2" opacity="0.4" d="M13.6331 10.1528H6.41309" stroke="#1A73E8" stroke-width="1.5" stroke-linecap="round" stroke-linejoin="round"/>
<path id="Stroke 3" opacity="0.4" d="M9.16809 5.97607H6.41309" stroke="#1A73E8" stroke-width="1.5" stroke-linecap="round" stroke-linejoin="round"/>
<path id="Stroke 4" fill-rule="evenodd" clip-rule="evenodd" d="M13.8255 0.865723C13.8255 0.865723 6.14848 0.869723 6.13648 0.869723C3.37648 0.886723 1.66748 2.70272 1.66748 5.47272V14.6687C1.66748 17.4527 3.38948 19.2757 6.17348 19.2757C6.17348 19.2757 13.8495 19.2727 13.8625 19.2727C16.6225 19.2557 18.3325 17.4387 18.3325 14.6687V5.47272C18.3325 2.68872 16.6095 0.865723 13.8255 0.865723Z" stroke="#1A73E8" stroke-width="1.5" stroke-linecap="round" stroke-linejoin="round"/>
<path id="Vector" d="M15.6675 8.31541C15.4775 8.31541 15.2875 8.24541 15.1375 8.09541L11.1775 4.13541C10.8875 3.84541 10.8875 3.36541 11.1775 3.07541C11.4675 2.78541 11.9475 2.78541 12.2375 3.07541L16.1975 7.03541C16.4875 7.32541 16.4875 7.80541 16.1975 8.09541C16.0475 8.23541 15.8575 8.31541 15.6675 8.31541Z" fill="#292D32"/>
<path id="Vector_2" d="M11.6674 8.35545C11.4774 8.35545 11.2874 8.28545 11.1374 8.13545C10.8474 7.84545 10.8474 7.36545 11.1374 7.07545L15.0974 3.11545C15.3874 2.82545 15.8674 2.82545 16.1574 3.11545C16.4474 3.40545 16.4474 3.88545 16.1574 4.17545L12.1974 8.13545C12.0474 8.28545 11.8574 8.35545 11.6674 8.35545Z" fill="#292D32"/>
</g>
</svg>
