<svg width="20" height="21" viewBox="0 0 20 21" fill="none" xmlns="http://www.w3.org/2000/svg">
<g id="Document">
<path id="Stroke 4" fill-rule="evenodd" clip-rule="evenodd" d="M13.8255 0.865723C13.8255 0.865723 6.14848 0.869723 6.13648 0.869723C3.37648 0.886723 1.66748 2.70272 1.66748 5.47272V14.6687C1.66748 17.4527 3.38948 19.2757 6.17348 19.2757C6.17348 19.2757 13.8495 19.2727 13.8625 19.2727C16.6225 19.2557 18.3325 17.4387 18.3325 14.6687V5.47272C18.3325 2.68872 16.6095 0.865723 13.8255 0.865723Z" stroke="#1A73E8" stroke-width="1.5" stroke-linecap="round" stroke-linejoin="round"/>
<path id="icon" opacity="0.4" fill-rule="evenodd" clip-rule="evenodd" d="M9.99976 5.63818C11.5007 5.63818 12.9359 6.43085 14.2734 7.73321C14.7297 8.17752 15.1425 8.65187 15.5059 9.12641C15.7252 9.41277 15.8809 9.63803 15.9661 9.77223L16.1558 10.0708L15.9661 10.3693C15.8809 10.5035 15.7252 10.7288 15.5059 11.0151C15.1425 11.4897 14.7297 11.964 14.2734 12.4083C12.9359 13.7107 11.5007 14.5033 9.99976 14.5033C8.49884 14.5033 7.06364 13.7107 5.72612 12.4083C5.26982 11.964 4.857 11.4897 4.4936 11.0151C4.27431 10.7288 4.11862 10.5035 4.03338 10.3693L3.84375 10.0708L4.03338 9.77223C4.11862 9.63803 4.27431 9.41277 4.4936 9.12641C4.857 8.65187 5.26982 8.17752 5.72612 7.73321C7.06364 6.43085 8.49884 5.63818 9.99976 5.63818ZM14.6344 9.80307C14.3016 9.36859 13.9233 8.93392 13.5083 8.5298C12.3563 7.4081 11.1581 6.74633 9.99975 6.74633C8.84137 6.74633 7.64317 7.4081 6.49119 8.5298C6.07617 8.93392 5.69788 9.36859 5.36515 9.80307C5.29329 9.89691 5.22689 9.98644 5.16618 10.0708C5.22689 10.1551 5.29329 10.2446 5.36515 10.3384C5.69788 10.7729 6.07617 11.2076 6.49119 11.6117C7.64317 12.7334 8.84137 13.3952 9.99975 13.3952C11.1581 13.3952 12.3563 12.7334 13.5083 11.6117C13.9233 11.2076 14.3016 10.7729 14.6344 10.3384C14.7062 10.2446 14.7726 10.1551 14.8333 10.0708C14.7726 9.98644 14.7062 9.89691 14.6344 9.80307ZM7.79862 10.0708C7.79862 11.2948 8.7841 12.287 9.99974 12.287C11.2154 12.287 12.2009 11.2948 12.2009 10.0708C12.2009 8.84674 11.2154 7.85447 9.99974 7.85447C8.7841 7.85447 7.79862 8.84674 7.79862 10.0708ZM11.1003 10.0708C11.1003 10.6828 10.6076 11.1789 9.99974 11.1789C9.39192 11.1789 8.89918 10.6828 8.89918 10.0708C8.89918 9.45875 9.39192 8.96262 9.99974 8.96262C10.6076 8.96262 11.1003 9.45875 11.1003 10.0708Z" fill="#1A73E8"/>
</g>
</svg>
