<svg width="24" height="25" viewBox="0 0 24 25" fill="none" xmlns="http://www.w3.org/2000/svg">
<g id="vuesax/outline/copy-success">
<g id="copy-success">
<path id="Vector" d="M17.1 1.3208H12.9C8.99 1.3208 7.25 3.0608 7.25 6.9708V8.0708C7.25 8.4808 7.59 8.8208 8 8.8208H11.1C14.2 8.8208 15.25 9.8708 15.25 12.9708V16.0708C15.25 16.4808 15.59 16.8208 16 16.8208H17.1C21.01 16.8208 22.75 15.0808 22.75 11.1708V6.9708C22.75 3.0608 21.01 1.3208 17.1 1.3208ZM8.75 7.3208V6.9708C8.75 3.8708 9.8 2.8208 12.9 2.8208H17.1C20.2 2.8208 21.25 3.8708 21.25 6.9708V11.1708C21.25 14.2708 20.2 15.3208 17.1 15.3208H16.75V12.9708C16.75 9.0608 15.01 7.3208 11.1 7.3208H8.75Z" fill="#1A73E8"/>
<path id="Vector_2" d="M11.1 7.3208H6.9C2.99 7.3208 1.25 9.0608 1.25 12.9708V17.1708C1.25 21.0808 2.99 22.8208 6.9 22.8208H11.1C15.01 22.8208 16.75 21.0808 16.75 17.1708V12.9708C16.75 9.0608 15.01 7.3208 11.1 7.3208ZM6.9 21.3208C3.8 21.3208 2.75 20.2708 2.75 17.1708V12.9708C2.75 9.8708 3.8 8.8208 6.9 8.8208H11.1C14.2 8.8208 15.25 9.8708 15.25 12.9708V17.1708C15.25 20.2708 14.2 21.3208 11.1 21.3208H6.9Z" fill="#1A73E8"/>
<path id="Vector_3" opacity="0.4" d="M8.03002 17.7708C7.84002 17.7708 7.65002 17.7008 7.50002 17.5508L5.55002 15.6008C5.26002 15.3108 5.26002 14.8308 5.55002 14.5408C5.84002 14.2508 6.32002 14.2508 6.61002 14.5408L8.03002 15.9608L11.39 12.6008C11.68 12.3108 12.16 12.3108 12.45 12.6008C12.74 12.8908 12.74 13.3708 12.45 13.6608L8.55002 17.5508C8.41002 17.6908 8.22002 17.7708 8.03002 17.7708Z" fill="#1A73E8"/>
</g>
</g>
</svg>
