<svg width="20" height="21" viewBox="0 0 20 21" fill="none" xmlns="http://www.w3.org/2000/svg">
<g id="Document">
<path id="Stroke 1" opacity="0.4" d="M13.6331 14.3394H6.41309" stroke="#1A73E8" stroke-width="1.5" stroke-linecap="round" stroke-linejoin="round"/>
<path id="Stroke 2" opacity="0.4" d="M13.6331 10.1528H6.41309" stroke="#1A73E8" stroke-width="1.5" stroke-linecap="round" stroke-linejoin="round"/>
<path id="Stroke 3" opacity="0.4" d="M8.54236 5.97607H6.41309" stroke="#1A73E8" stroke-width="1.5" stroke-linecap="round" stroke-linejoin="round"/>
<path id="Stroke 4" fill-rule="evenodd" clip-rule="evenodd" d="M13.8255 0.865723C13.8255 0.865723 6.14848 0.869723 6.13648 0.869723C3.37648 0.886723 1.66748 2.70272 1.66748 5.47272V14.6687C1.66748 17.4527 3.38948 19.2757 6.17348 19.2757C6.17348 19.2757 13.8495 19.2727 13.8625 19.2727C16.6225 19.2557 18.3325 17.4387 18.3325 14.6687V5.47272C18.3325 2.68872 16.6095 0.865723 13.8255 0.865723Z" stroke="#1A73E8" stroke-width="1.5" stroke-linecap="round" stroke-linejoin="round"/>
<path id="Vector" d="M13.2275 9.15527C12.8175 9.15527 12.4775 8.81527 12.4775 8.40527V3.40527C12.4775 2.99527 12.8175 2.65527 13.2275 2.65527C13.6375 2.65527 13.9775 2.99527 13.9775 3.40527V8.40527C13.9775 8.81527 13.6375 9.15527 13.2275 9.15527Z" fill="#292D32"/>
<path id="Vector_2" d="M15.6675 6.65527H10.6675C10.2575 6.65527 9.91748 6.31527 9.91748 5.90527C9.91748 5.49527 10.2575 5.15527 10.6675 5.15527H15.6675C16.0775 5.15527 16.4175 5.49527 16.4175 5.90527C16.4175 6.31527 16.0775 6.65527 15.6675 6.65527Z" fill="#292D32"/>
</g>
</svg>
