<svg width="20" height="21" viewBox="0 0 20 21" fill="none" xmlns="http://www.w3.org/2000/svg">
<g id="Document">
<path id="Stroke 4" fill-rule="evenodd" clip-rule="evenodd" d="M13.8255 0.865723C13.8255 0.865723 6.14848 0.869723 6.13648 0.869723C3.37648 0.886723 1.66748 2.70272 1.66748 5.47272V14.6687C1.66748 17.4527 3.38948 19.2757 6.17348 19.2757C6.17348 19.2757 13.8495 19.2727 13.8625 19.2727C16.6225 19.2557 18.3325 17.4387 18.3325 14.6687V5.47272C18.3325 2.68872 16.6095 0.865723 13.8255 0.865723Z" stroke="#1A73E8" stroke-width="1.5" stroke-linecap="round" stroke-linejoin="round"/>
<path id="Vector" opacity="0.4" d="M12.3405 14.8511C12.3305 14.8511 12.3205 14.8511 12.3205 14.8511H6.76049C5.09049 14.7311 4.25049 13.4511 4.25049 12.2311C4.25049 11.2511 4.80049 10.2211 5.86049 9.80112C5.64049 8.55112 5.96049 7.39112 6.79049 6.52112C7.81049 5.45112 9.45049 5.02109 10.8705 5.46109C12.1105 5.84109 13.0005 6.8211 13.3705 8.1811C14.4205 8.5011 15.2505 9.33109 15.5905 10.4611C15.9905 11.7711 15.6205 13.1111 14.6305 13.9711C14.0205 14.5311 13.2005 14.8511 12.3405 14.8511ZM6.79049 11.1111C6.03049 11.1811 5.75049 11.7511 5.75049 12.2311C5.75049 12.7111 6.03049 13.2911 6.81049 13.3511H12.3205C12.8305 13.3211 13.2805 13.1711 13.6405 12.8511C14.2905 12.2811 14.3405 11.4711 14.1605 10.8911C13.9805 10.3111 13.4905 9.66112 12.6505 9.55112C12.3205 9.51112 12.0605 9.2611 12.0005 8.9311C11.7805 7.5811 11.0205 7.0811 10.4305 6.9011C9.56049 6.6311 8.51049 6.90111 7.88049 7.57111C7.45049 8.02111 7.03049 8.8311 7.50049 10.1211C7.64049 10.5111 7.44049 10.9411 7.05049 11.0811C6.96049 11.1011 6.87049 11.1111 6.79049 11.1111Z" fill="#292D32"/>
</g>
</svg>
