<svg width="20" height="21" viewBox="0 0 20 21" fill="none" xmlns="http://www.w3.org/2000/svg">
<g id="Document">
<path id="Stroke 4" fill-rule="evenodd" clip-rule="evenodd" d="M13.8255 0.865723C13.8255 0.865723 6.14848 0.869723 6.13648 0.869723C3.37648 0.886723 1.66748 2.70272 1.66748 5.47272V14.6687C1.66748 17.4527 3.38948 19.2757 6.17348 19.2757C6.17348 19.2757 13.8495 19.2727 13.8625 19.2727C16.6225 19.2557 18.3325 17.4387 18.3325 14.6687V5.47272C18.3325 2.68872 16.6095 0.865723 13.8255 0.865723Z" stroke="#1A73E8" stroke-width="1.5" stroke-linecap="round" stroke-linejoin="round"/>
<path id="Union" opacity="0.4" fill-rule="evenodd" clip-rule="evenodd" d="M8.22107 13.9102C8.02911 13.9103 7.83715 13.837 7.6907 13.6906L5.74262 11.7425C5.44973 11.4496 5.44973 10.9747 5.74262 10.6818C6.03551 10.3889 6.51039 10.3889 6.80328 10.6818L8.22107 12.0996L12.7961 7.5246C13.089 7.23171 13.5639 7.23171 13.8567 7.5246C14.1496 7.81749 14.1496 8.29237 13.8567 8.58526L8.75143 13.6906C8.60498 13.837 8.41302 13.9103 8.22107 13.9102Z" fill="#1A73E8"/>
</g>
</svg>
