<svg width="22" height="22" viewBox="0 0 22 22" fill="none" xmlns="http://www.w3.org/2000/svg">
<g id="Chat">
<path id="Stroke 4" fill-rule="evenodd" clip-rule="evenodd" d="M18.0714 18.1407C15.0152 21.1971 10.4898 21.8575 6.78642 20.1448C6.23971 19.9247 5.79148 19.7468 5.36537 19.7468C4.17849 19.7538 2.70117 20.9047 1.93336 20.1378C1.16555 19.3699 2.31726 17.8914 2.31726 16.6974C2.31726 16.2712 2.14642 15.831 1.92632 15.2832C0.212831 11.5804 0.874109 7.05349 3.93026 3.99801C7.8316 0.0952327 14.17 0.095233 18.0714 3.997C21.9797 7.90581 21.9727 14.2389 18.0714 18.1407Z" stroke="#1A73E8" stroke-width="1.5" stroke-linecap="round" stroke-linejoin="round"/>
<path id="Stroke 11" opacity="0.4" d="M14.9393 11.4839H14.9483" stroke="#1A73E8" stroke-width="2" stroke-linecap="round" stroke-linejoin="round"/>
<path id="Stroke 13" opacity="0.4" d="M10.9306 11.4839H10.9396" stroke="#1A73E8" stroke-width="2" stroke-linecap="round" stroke-linejoin="round"/>
<path id="Stroke 15" opacity="0.4" d="M6.92128 11.4839H6.93028" stroke="#1A73E8" stroke-width="2" stroke-linecap="round" stroke-linejoin="round"/>
</g>
</svg>
