<svg width="24" height="25" viewBox="0 0 24 25" fill="none" xmlns="http://www.w3.org/2000/svg">
<g id="vuesax/outline/trush-square">
<g id="trush-square">
<path id="Vector" d="M15 22.8208H9C3.57 22.8208 1.25 20.5008 1.25 15.0708V9.0708C1.25 3.6408 3.57 1.3208 9 1.3208H15C20.43 1.3208 22.75 3.6408 22.75 9.0708V15.0708C22.75 20.5008 20.43 22.8208 15 22.8208ZM9 2.8208C4.39 2.8208 2.75 4.4608 2.75 9.0708V15.0708C2.75 19.6808 4.39 21.3208 9 21.3208H15C19.61 21.3208 21.25 19.6808 21.25 15.0708V9.0708C21.25 4.4608 19.61 2.8208 15 2.8208H9Z" fill="#1A73E8"/>
<path id="Union" opacity="0.4" fill-rule="evenodd" clip-rule="evenodd" d="M13.41 7.74075L13.4649 8.07405C12.4835 8.04169 11.504 8.03468 10.5266 8.05856L10.58 7.73076C10.6 7.59076 10.64 7.37075 10.66 7.33075C10.66 7.33075 10.76 7.27075 11.13 7.27075H12.85C13.21 7.27075 13.31 7.33075 13.31 7.33075C13.35 7.38075 13.39 7.60075 13.41 7.74075ZM9.09999 7.49075L8.99723 8.12202C8.45413 8.15413 7.91172 8.19671 7.37002 8.25073L6.03002 8.38073C5.62002 8.42073 5.32002 8.79074 5.36002 9.20074C5.40002 9.61074 5.76002 9.91074 6.18002 9.87074L6.78715 9.81183L7.17999 15.8507C7.24999 16.8607 7.36 18.3807 9.89 18.3807H14.1C16.6357 18.3807 16.7396 16.8659 16.8096 15.8459L16.81 15.8407L17.2028 9.81134C17.4118 9.83036 17.6209 9.85019 17.83 9.87074H17.9C18.28 9.87074 18.61 9.58074 18.65 9.20074C18.69 8.79074 18.39 8.42073 17.98 8.38073C16.9803 8.28245 15.9822 8.20151 14.9859 8.14368L14.88 7.50075L14.8789 7.49394C14.7786 6.89232 14.5934 5.78076 12.85 5.78076H11.13C9.39387 5.78076 9.2108 6.84598 9.10073 7.48646L9.09999 7.49075ZM15.7043 9.68932C13.2183 9.51228 10.7438 9.46985 8.2845 9.6704L8.67999 15.7407L8.68012 15.7426C8.75 16.7209 8.7607 16.8707 9.89 16.8707H14.1C15.2293 16.8707 15.24 16.7209 15.3099 15.7426L15.31 15.7407L15.7043 9.68932Z" fill="#1A73E8"/>
</g>
</g>
</svg>
