<svg width="24" height="25" viewBox="0 0 24 25" fill="none" xmlns="http://www.w3.org/2000/svg">
<g id="vuesax/outline/favorite-chart">
<g id="favorite-chart">
<path id="Vector" d="M13 22.8208H9C3.57 22.8208 1.25 20.5008 1.25 15.0708V9.0708C1.25 3.6408 3.57 1.3208 9 1.3208H15C20.43 1.3208 22.75 3.6408 22.75 9.0708V13.0708C22.75 13.4808 22.41 13.8208 22 13.8208C21.59 13.8208 21.25 13.4808 21.25 13.0708V9.0708C21.25 4.4608 19.61 2.8208 15 2.8208H9C4.39 2.8208 2.75 4.4608 2.75 9.0708V15.0708C2.75 19.6808 4.39 21.3208 9 21.3208H13C13.41 21.3208 13.75 21.6608 13.75 22.0708C13.75 22.4808 13.41 22.8208 13 22.8208Z" fill="#1A73E8"/>
<path id="Vector_2" opacity="0.4" d="M7.33009 15.3108C7.17009 15.3108 7.0101 15.2608 6.8701 15.1508C6.5401 14.9008 6.48012 14.4308 6.73012 14.1008L9.11009 11.0108C9.40009 10.6408 9.81011 10.4008 10.2801 10.3408C10.7501 10.2808 11.2101 10.4108 11.5801 10.7008L13.4101 12.1408C13.4801 12.2008 13.5501 12.1908 13.6001 12.1908C13.6401 12.1908 13.7101 12.1708 13.7701 12.0908L16.0801 9.1108C16.3301 8.7808 16.8001 8.72081 17.1301 8.98081C17.4601 9.23081 17.5201 9.70081 17.2601 10.0308L14.9501 13.0108C14.6601 13.3808 14.2501 13.6208 13.7801 13.6708C13.3201 13.7308 12.8501 13.6008 12.4901 13.3108L10.6601 11.8708C10.5901 11.8108 10.5101 11.8108 10.4701 11.8208C10.4301 11.8208 10.3601 11.8408 10.3001 11.9208L7.92012 15.0108C7.78012 15.2108 7.56009 15.3108 7.33009 15.3108Z" fill="#1A73E8"/>
<path id="Vector_3" d="M20.26 22.8208C19.91 22.8208 19.46 22.7108 18.93 22.3908L18.68 22.2408C18.61 22.2008 18.3999 22.2008 18.3299 22.2408L18.0799 22.3908C16.9299 23.0808 16.2 22.7908 15.88 22.5508C15.55 22.3108 15.04 21.7108 15.34 20.3908L15.39 20.1808C15.41 20.1008 15.3499 19.9108 15.2999 19.8508L14.95 19.5008C14.36 18.9008 14.1299 18.2008 14.3299 17.5708C14.5299 16.9508 15.12 16.5108 15.95 16.3708L16.3299 16.3108C16.3999 16.2908 16.5399 16.1908 16.5799 16.1208L16.8599 15.5508C17.2499 14.7608 17.85 14.3108 18.51 14.3108C19.17 14.3108 19.77 14.7608 20.16 15.5508L20.44 16.1108C20.48 16.1808 20.62 16.2808 20.69 16.3008L21.07 16.3608C21.9 16.5008 22.49 16.9408 22.69 17.5608C22.89 18.1808 22.67 18.8808 22.07 19.4908L21.72 19.8408C21.67 19.9008 21.61 20.0908 21.63 20.1708L21.68 20.3808C21.98 21.7008 21.47 22.3008 21.14 22.5408C20.96 22.6808 20.67 22.8208 20.26 22.8208ZM18.49 15.8208C18.48 15.8308 18.34 15.9308 18.2 16.2208L17.92 16.7908C17.68 17.2808 17.1099 17.7008 16.5799 17.7908L16.2 17.8508C15.88 17.9008 15.77 18.0108 15.76 18.0308C15.76 18.0508 15.79 18.2108 16.02 18.4408L16.37 18.7908C16.78 19.2108 16.9899 19.9308 16.8599 20.5008L16.81 20.7108C16.72 21.1008 16.76 21.2708 16.78 21.3308C16.81 21.3108 16.98 21.2908 17.31 21.0908L17.56 20.9408C18.11 20.6108 18.9 20.6108 19.45 20.9408L19.7 21.0908C20.11 21.3408 20.28 21.3108 20.29 21.3108C20.25 21.3108 20.3 21.1108 20.21 20.7108L20.16 20.5008C20.03 19.9208 20.24 19.2108 20.65 18.7908L21 18.4408C21.23 18.2108 21.26 18.0508 21.26 18.0208C21.25 18.0008 21.14 17.9008 20.82 17.8408L20.44 17.7808C19.9 17.6908 19.34 17.2708 19.1 16.7808L18.82 16.2208C18.66 15.9208 18.52 15.8308 18.49 15.8208Z" fill="#1A73E8"/>
</g>
</g>
</svg>
