<svg width="20" height="20" viewBox="0 0 20 20" fill="none" xmlns="http://www.w3.org/2000/svg">
<path opacity="0.4" d="M13.6331 14.2686H6.41309" stroke="#343A40" stroke-width="1.5" stroke-linecap="round" stroke-linejoin="round"/>
<path fill-rule="evenodd" clip-rule="evenodd" d="M13.8255 0.794922C13.8255 0.794922 6.14848 0.798922 6.13648 0.798922C3.37648 0.815922 1.66748 2.63192 1.66748 5.40192V14.5979C1.66748 17.3819 3.38948 19.2049 6.17348 19.2049C6.17348 19.2049 13.8495 19.2019 13.8625 19.2019C16.6225 19.1849 18.3325 17.3679 18.3325 14.5979V5.40192C18.3325 2.61792 16.6095 0.794922 13.8255 0.794922Z" stroke="#343A40" stroke-width="1.5" stroke-linecap="round" stroke-linejoin="round"/>
<path fill-rule="evenodd" clip-rule="evenodd" d="M9.27313 11.3345C9.27313 11.7445 9.61313 12.0845 10.0231 12.0845C10.4331 12.0845 10.7731 11.7445 10.7731 11.3345V7.14441L11.4931 7.86441C11.6431 8.01441 11.8331 8.08441 12.0231 8.08441C12.2131 8.08441 12.4031 8.01441 12.5531 7.86441C12.8431 7.57441 12.8431 7.09441 12.5531 6.80441L10.5891 4.84038C10.518 4.75851 10.4287 4.69222 10.3252 4.64933C10.3155 4.64514 10.3058 4.64116 10.296 4.63738C10.1402 4.57534 9.97026 4.57098 9.81474 4.61587C9.69649 4.64947 9.58523 4.71232 9.49313 4.80441C9.49146 4.80609 9.4898 4.80777 9.48814 4.80945L7.49313 6.80446C7.20313 7.09446 7.20313 7.57446 7.49313 7.86446C7.78313 8.15446 8.26314 8.15446 8.55314 7.86446L9.27313 7.14446V11.3345Z" fill="#292D32"/>
</svg>
