<svg width="20" height="20" viewBox="0 0 20 20" fill="none" xmlns="http://www.w3.org/2000/svg">
<path opacity="0.4" d="M13.6331 14.2686H6.41309" stroke="#343A40" stroke-width="1.5" stroke-linecap="round" stroke-linejoin="round"/>
<path opacity="0.4" d="M13.6331 10.082H6.41309" stroke="#343A40" stroke-width="1.5" stroke-linecap="round" stroke-linejoin="round"/>
<path opacity="0.4" d="M9.16809 5.90527H6.41309" stroke="#343A40" stroke-width="1.5" stroke-linecap="round" stroke-linejoin="round"/>
<path fill-rule="evenodd" clip-rule="evenodd" d="M13.8255 0.794922C13.8255 0.794922 6.14848 0.798922 6.13648 0.798922C3.37648 0.815922 1.66748 2.63192 1.66748 5.40192V14.5979C1.66748 17.3819 3.38948 19.2049 6.17348 19.2049C6.17348 19.2049 13.8495 19.2019 13.8625 19.2019C16.6225 19.1849 18.3325 17.3679 18.3325 14.5979V5.40192C18.3325 2.61792 16.6095 0.794922 13.8255 0.794922Z" stroke="#343A40" stroke-width="1.5" stroke-linecap="round" stroke-linejoin="round"/>
<path d="M15.6675 8.24461C15.4775 8.24461 15.2875 8.17461 15.1375 8.02461L11.1775 4.06461C10.8875 3.77461 10.8875 3.29461 11.1775 3.00461C11.4675 2.71461 11.9475 2.71461 12.2375 3.00461L16.1975 6.96461C16.4875 7.25461 16.4875 7.73461 16.1975 8.02461C16.0475 8.16461 15.8575 8.24461 15.6675 8.24461Z" fill="#292D32"/>
<path d="M11.6674 8.28465C11.4774 8.28465 11.2874 8.21465 11.1374 8.06465C10.8474 7.77465 10.8474 7.29465 11.1374 7.00465L15.0974 3.04465C15.3874 2.75465 15.8674 2.75465 16.1574 3.04465C16.4474 3.33465 16.4474 3.81465 16.1574 4.10465L12.1974 8.06465C12.0474 8.21465 11.8574 8.28465 11.6674 8.28465Z" fill="#292D32"/>
</svg>
