<svg width="20" height="20" viewBox="0 0 20 20" fill="none" xmlns="http://www.w3.org/2000/svg">
<g id="row-vertical">
<g id="vuesax/outline/row-vertical">
<g id="row-vertical_2">
<path id="Vector" d="M16.5834 6.43583H3.41675C1.81675 6.43583 1.04175 5.9072 1.04175 4.82837V2.64914C1.04175 1.56492 1.81675 1.04169 3.41675 1.04169H16.5834C18.1834 1.04169 18.9584 1.57031 18.9584 2.64914V4.82837C18.9584 5.9072 18.1834 6.43583 16.5834 6.43583ZM3.41675 1.85081C2.57508 1.85081 2.29175 1.96408 2.29175 2.64914V4.82837C2.29175 5.51343 2.57508 5.62671 3.41675 5.62671H16.5834C17.4251 5.62671 17.7084 5.51343 17.7084 4.82837V2.64914C17.7084 1.96408 17.4251 1.85081 16.5834 1.85081H3.41675Z" fill="white"/>
<path id="Vector_2" d="M16.5834 18.5H3.41675C1.81675 18.5 1.04175 17.9714 1.04175 16.8926V14.7133C1.04175 13.6291 1.81675 13.1059 3.41675 13.1059H16.5834C18.1834 13.1059 18.9584 13.6345 18.9584 14.7133V16.8926C18.9584 17.9714 18.1834 18.5 16.5834 18.5ZM3.41675 13.915C2.57508 13.915 2.29175 14.0283 2.29175 14.7133V16.8926C2.29175 17.5776 2.57508 17.6909 3.41675 17.6909H16.5834C17.4251 17.6909 17.7084 17.5776 17.7084 16.8926V14.7133C17.7084 14.0283 17.4251 13.915 16.5834 13.915H3.41675Z" fill="white"/>
<g id="Vector_3">
<path d="M17.0212 9.08934L4.19188 12.0506C2.63287 12.4104 1.75883 12.0697 1.5162 11.0185L1.02608 8.89507C0.782228 7.83862 1.4197 7.15449 2.9787 6.79465L15.808 3.83339C17.3671 3.47354 18.2411 3.81432 18.4837 4.86551L18.9739 6.98891C19.2165 8.0401 18.5802 8.72949 17.0212 9.08934ZM3.16068 7.58304C2.34058 7.77233 2.08998 7.94643 2.24405 8.61394L2.73417 10.7373C2.88825 11.4048 3.1898 11.4515 4.0099 11.2622L16.8392 8.30094C17.6593 8.11165 17.9099 7.93755 17.7559 7.27004L17.2658 5.14664C17.1117 4.47914 16.8101 4.43249 15.99 4.62178L3.16068 7.58304Z" fill="#1A73E8"/>
<path d="M3.16068 7.58304C2.34058 7.77233 2.08998 7.94643 2.24405 8.61394L2.73417 10.7373C2.88825 11.4048 3.1898 11.4515 4.0099 11.2622L16.8392 8.30094C17.6593 8.11165 17.9099 7.93755 17.7559 7.27004L17.2658 5.14664C17.1117 4.47914 16.8101 4.43249 15.99 4.62178L3.16068 7.58304Z" fill="#1A73E8"/>
</g>
<path id="Vector_4" d="M17.0212 9.08934L4.19188 12.0506C2.63287 12.4104 1.75883 12.0697 1.5162 11.0185L1.02608 8.89507C0.782228 7.83862 1.4197 7.15449 2.9787 6.79465L15.808 3.83339C17.3671 3.47354 18.2411 3.81432 18.4837 4.86551L18.9739 6.98891C19.2165 8.0401 18.5802 8.72949 17.0212 9.08934ZM3.16068 7.58304C2.34058 7.77233 2.08998 7.94643 2.24405 8.61394L2.73417 10.7373C2.88825 11.4048 3.1898 11.4515 4.0099 11.2622L16.8392 8.30094C17.6593 8.11165 17.9099 7.93755 17.7559 7.27004L17.2658 5.14664C17.1117 4.47914 16.8101 4.43249 15.99 4.62178L3.16068 7.58304Z" fill="white"/>
</g>
</g>
</g>
</svg>
