<svg width="12" height="14" viewBox="0 0 12 14" fill="none" xmlns="http://www.w3.org/2000/svg">
<g id="Calendar">
<path id="Calendar_2" fill-rule="evenodd" clip-rule="evenodd" d="M8.96812 0.823379V1.51331C10.9739 1.7079 12 2.81651 12 4.80963V10.3232C12 12.5404 10.7362 13.6667 8.24928 13.6667H3.75072C1.26377 13.6667 0 12.5404 0 10.3232V4.80963C0 3.48285 0.452174 2.53346 1.37971 1.97916C1.52592 1.87935 1.71509 1.87239 1.86801 1.96117C2.02094 2.04995 2.11124 2.21917 2.10113 2.39798C2.09101 2.5768 1.98222 2.73436 1.82029 2.80471C1.2058 3.17031 0.915942 3.80717 0.915942 4.80963V4.98654H9.37391C9.62684 4.98654 9.83188 5.1951 9.83188 5.45239C9.83188 5.70967 9.62684 5.91823 9.37391 5.91823H0.915942V10.3232C0.915942 12.0155 1.73913 12.7173 3.75072 12.7291H8.24928C10.2319 12.7291 11.0783 12.0097 11.0783 10.3173V4.80373C11.0783 3.32953 10.4348 2.61601 8.96812 2.44501V2.89316C8.93429 3.13204 8.72868 3.30642 8.4916 3.29732C8.25451 3.28822 8.06241 3.09857 8.04638 2.85778V0.782101C8.05087 0.65745 8.10432 0.53984 8.19476 0.455604C8.2852 0.371368 8.40507 0.327543 8.52754 0.333942C8.78003 0.349735 8.97484 0.566149 8.96812 0.823379ZM3.80585 3.19519C3.71871 3.28272 3.60072 3.33111 3.47826 3.32953C3.2276 3.32309 3.02863 3.11282 3.03188 2.85778V0.823379C3.05824 0.584719 3.25665 0.404293 3.49275 0.404293C3.72885 0.404293 3.92727 0.584719 3.95362 0.823379V1.46613H6.57391C6.82684 1.46613 7.03188 1.6747 7.03188 1.93198C7.03188 2.18926 6.82684 2.39783 6.57391 2.39783H3.94203V2.86368C3.94204 2.98826 3.89299 3.10765 3.80585 3.19519ZM8.7942 7.41013C8.47404 7.41013 8.21449 7.67414 8.21449 7.99981C8.21449 8.32549 8.47404 8.5895 8.7942 8.5895C9.11437 8.5895 9.37391 8.32549 9.37391 7.99981C9.37392 7.84239 9.31205 7.6915 9.20208 7.58075C9.0921 7.46999 8.94316 7.40856 8.78841 7.41013H8.7942ZM5.43188 7.99981C5.43188 7.67414 5.69143 7.41013 6.01159 7.41013C6.33176 7.41013 6.5913 7.67414 6.5913 7.99981C6.5913 8.32549 6.33176 8.5895 6.01159 8.5895C5.69143 8.5895 5.43188 8.32549 5.43188 7.99981ZM3.23478 7.41013C2.91462 7.41013 2.65507 7.67414 2.65507 7.99981C2.65507 8.32549 2.91462 8.5895 3.23478 8.5895C3.55495 8.5895 3.81449 8.32549 3.81449 7.99981C3.8145 7.84239 3.75263 7.6915 3.64266 7.58075C3.53268 7.46999 3.38374 7.40856 3.22899 7.41013H3.23478ZM8.21449 10.388C8.21449 10.0624 8.47404 9.79835 8.7942 9.79835H8.78841C8.94316 9.79677 9.0921 9.8582 9.20208 9.96896C9.31205 10.0797 9.37392 10.2306 9.37391 10.388C9.37391 10.7137 9.11437 10.9777 8.7942 10.9777C8.47404 10.9777 8.21449 10.7137 8.21449 10.388ZM6.01159 9.79834C5.69143 9.79834 5.43188 10.0624 5.43188 10.388C5.43188 10.7137 5.69143 10.9777 6.01159 10.9777C6.33176 10.9777 6.5913 10.7137 6.5913 10.388C6.5913 10.0624 6.33176 9.79834 6.01159 9.79834ZM2.65507 10.388C2.65507 10.0624 2.91462 9.79835 3.23478 9.79835H3.22899C3.38374 9.79677 3.53268 9.8582 3.64266 9.96896C3.75263 10.0797 3.8145 10.2306 3.81449 10.388C3.81449 10.7137 3.55495 10.9777 3.23478 10.9777C2.91462 10.9777 2.65507 10.7137 2.65507 10.388Z" fill="#130F26"/>
</g>
</svg>
