<svg width="11" height="11" viewBox="0 0 11 11" fill="none" xmlns="http://www.w3.org/2000/svg">
<g id="vuesax/outline/car">
<g id="car">
<path id="Vector" d="M8.9282 5.53223H2.07105C1.97248 5.53223 1.88248 5.48937 1.82248 5.41223C1.76248 5.33937 1.73677 5.23651 1.7582 5.14223L2.24248 2.82794C2.40105 2.07794 2.72248 1.38794 3.99534 1.38794H7.0082C8.28105 1.38794 8.60248 2.08223 8.76105 2.82794L9.24534 5.14651C9.26677 5.2408 9.24105 5.33937 9.18105 5.41651C9.11677 5.48937 9.02677 5.53223 8.9282 5.53223ZM2.46534 4.88937H8.52962L8.12677 2.9608C8.00677 2.39937 7.86534 2.0308 7.00391 2.0308H3.99534C3.13391 2.0308 2.99248 2.39937 2.87248 2.9608L2.46534 4.88937Z" fill="white"/>
<path id="Vector_2" d="M8.91108 10.2465H8.10537C7.41108 10.2465 7.27822 9.84791 7.19251 9.58649L7.1068 9.32934C6.99537 9.00363 6.98251 8.96077 6.5968 8.96077H4.40251C4.0168 8.96077 3.99108 9.03363 3.89251 9.32934L3.8068 9.58649C3.7168 9.8522 3.58822 10.2465 2.89394 10.2465H2.08822C1.74965 10.2465 1.42394 10.1051 1.1968 9.85649C0.973939 9.6122 0.866796 9.28649 0.896796 8.96077L1.1368 6.35077C1.20108 5.64363 1.38965 4.88934 2.76537 4.88934H8.23394C9.60965 4.88934 9.79394 5.64363 9.86251 6.35077L10.1025 8.96077C10.1325 9.28649 10.0254 9.6122 9.80251 9.85649C9.57537 10.1051 9.24965 10.2465 8.91108 10.2465ZM4.40251 8.31791H6.5968C7.3768 8.31791 7.56108 8.66506 7.71537 9.11934L7.80537 9.38506C7.87822 9.60363 7.87822 9.60791 8.10965 9.60791H8.91537C9.07394 9.60791 9.22394 9.54363 9.33108 9.42791C9.43394 9.31649 9.48108 9.17506 9.46822 9.02506L9.22822 6.41506C9.17251 5.83649 9.10394 5.53649 8.24251 5.53649H2.76537C1.89965 5.53649 1.83108 5.83649 1.77965 6.41506L1.53965 9.02506C1.5268 9.17506 1.57394 9.31649 1.6768 9.42791C1.77965 9.54363 1.93394 9.60791 2.09251 9.60791H2.89822C3.12965 9.60791 3.12965 9.60363 3.20251 9.38934L3.28822 9.12791C3.39537 8.78506 3.55394 8.31791 4.40251 8.31791Z" fill="white"/>
<path id="Vector_3" d="M2.07104 4.24649H1.64247C1.46676 4.24649 1.32104 4.10078 1.32104 3.92507C1.32104 3.74935 1.46676 3.60364 1.64247 3.60364H2.07104C2.24676 3.60364 2.39247 3.74935 2.39247 3.92507C2.39247 4.10078 2.24676 4.24649 2.07104 4.24649Z" fill="white"/>
<path id="Vector_4" d="M9.35669 4.24649H8.92812C8.7524 4.24649 8.60669 4.10078 8.60669 3.92507C8.60669 3.74935 8.7524 3.60364 8.92812 3.60364H9.35669C9.5324 3.60364 9.67812 3.74935 9.67812 3.92507C9.67812 4.10078 9.5324 4.24649 9.35669 4.24649Z" fill="white"/>
<path id="Vector_5" d="M5.49965 2.96075C5.32394 2.96075 5.17822 2.81504 5.17822 2.63933V1.78218C5.17822 1.60647 5.32394 1.46075 5.49965 1.46075C5.67537 1.46075 5.82108 1.60647 5.82108 1.78218V2.63933C5.82108 2.81504 5.67537 2.96075 5.49965 2.96075Z" fill="white"/>
<path id="Vector_6" d="M6.14254 2.96079H4.85683C4.68111 2.96079 4.5354 2.81507 4.5354 2.63936C4.5354 2.46365 4.68111 2.31793 4.85683 2.31793H6.14254C6.31826 2.31793 6.46397 2.46365 6.46397 2.63936C6.46397 2.81507 6.31826 2.96079 6.14254 2.96079Z" fill="white"/>
<path id="Vector_7" d="M4.21383 7.24649H2.92812C2.7524 7.24649 2.60669 7.10078 2.60669 6.92507C2.60669 6.74935 2.7524 6.60364 2.92812 6.60364H4.21383C4.38955 6.60364 4.53526 6.74935 4.53526 6.92507C4.53526 7.10078 4.38955 7.24649 4.21383 7.24649Z" fill="white"/>
<path id="Vector_8" d="M8.07101 7.24649H6.7853C6.60958 7.24649 6.46387 7.10078 6.46387 6.92507C6.46387 6.74935 6.60958 6.60364 6.7853 6.60364H8.07101C8.24672 6.60364 8.39244 6.74935 8.39244 6.92507C8.39244 7.10078 8.24672 7.24649 8.07101 7.24649Z" fill="white"/>
</g>
</g>
</svg>
