<svg width="18" height="19" viewBox="0 0 18 19" fill="none" xmlns="http://www.w3.org/2000/svg">
<g id="messages-3">
<path id="Vector" d="M12.675 14.7576C12.4425 14.7576 12.21 14.6901 12.0075 14.5551L11.2875 14.0826C11.085 13.9475 10.9875 13.6926 11.055 13.4601C11.1075 13.2876 11.13 13.085 11.13 12.86V9.80754C11.13 8.58504 10.365 7.82007 9.1425 7.82007H4.05C3.96 7.82007 3.8775 7.82758 3.795 7.83508C3.6375 7.84258 3.4875 7.79007 3.3675 7.68507C3.2475 7.58007 3.1875 7.43008 3.1875 7.27258V5.19507C3.1875 2.99007 4.7325 1.44507 6.9375 1.44507H13.3125C15.5175 1.44507 17.0625 2.99007 17.0625 5.19507V9.02005C17.0625 10.1075 16.695 11.0675 16.02 11.7275C15.48 12.275 14.73 12.6276 13.875 12.7326V13.565C13.875 14.015 13.6275 14.4201 13.2375 14.6301C13.0575 14.7126 12.8625 14.7576 12.675 14.7576ZM12.225 13.3476L12.7125 13.6251C12.7575 13.6026 12.7575 13.565 12.7575 13.5575V12.2C12.7575 11.8925 13.0125 11.6375 13.32 11.6375C14.1075 11.6375 14.775 11.3901 15.2325 10.9251C15.705 10.4601 15.945 9.80004 15.945 9.01254V5.18756C15.945 3.59006 14.9175 2.56256 13.32 2.56256H6.945C5.3475 2.56256 4.32 3.59006 4.32 5.18756V6.68756H9.15C10.98 6.68756 12.2625 7.97008 12.2625 9.80008V12.8525C12.255 13.025 12.2475 13.1901 12.225 13.3476Z" fill="#869099"/>
<path id="Vector_2" d="M4.55251 17.5625C4.38751 17.5625 4.215 17.525 4.0575 17.4425C3.705 17.255 3.4875 16.895 3.4875 16.49V15.92C2.8275 15.815 2.2425 15.5375 1.8075 15.1025C1.2375 14.5325 0.9375 13.7525 0.9375 12.8525V9.80002C0.9375 8.10502 2.04749 6.86001 3.69749 6.70251C3.81749 6.69501 3.93 6.6875 4.05 6.6875H9.1425C10.9725 6.6875 12.255 7.97002 12.255 9.80002V12.8525C12.255 13.1825 12.2175 13.49 12.135 13.7675C11.7975 15.1175 10.65 15.965 9.1425 15.965H7.275L5.1525 17.375C4.9725 17.5025 4.76251 17.5625 4.55251 17.5625ZM4.05 7.8125C3.96 7.8125 3.8775 7.82001 3.795 7.82751C2.715 7.92501 2.0625 8.66752 2.0625 9.80002V12.8525C2.0625 13.4525 2.25 13.955 2.6025 14.3075C2.9475 14.6525 3.45 14.84 4.05 14.84C4.3575 14.84 4.6125 15.095 4.6125 15.4025V16.385L6.7875 14.9375C6.8775 14.8775 6.99 14.84 7.1025 14.84H9.1425C10.1325 14.84 10.83 14.345 11.0475 13.475C11.1 13.2875 11.13 13.0775 11.13 12.8525V9.80002C11.13 8.57752 10.365 7.8125 9.1425 7.8125H4.05Z" fill="#869099"/>
</g>
</svg>
