<svg width="24" height="16" viewBox="-4.5 0 24 16" fill="none" xmlns="http://www.w3.org/2000/svg">
<g id="Chat">
<path id="Stroke 4" fill-rule="evenodd" clip-rule="evenodd" d="M12.2144 12.3821C10.177 14.4198 7.16001 14.86 4.69111 13.7182C4.32663 13.5715 4.02782 13.4529 3.74374 13.4529C2.95249 13.4576 1.96761 14.2248 1.45574 13.7135C0.943865 13.2016 1.71167 12.2159 1.71167 11.4199C1.71167 11.1358 1.59777 10.8423 1.45105 10.4771C0.308717 8.00861 0.749569 4.99066 2.787 2.95367C5.38789 0.351818 9.61351 0.351819 12.2144 2.953C14.82 5.55887 14.8153 9.78093 12.2144 12.3821Z" stroke="white" stroke-width="1.5" stroke-linecap="round" stroke-linejoin="round"/>
<path id="Stroke 11" opacity="0.4" d="M10.1262 7.94417H10.1322" stroke="white" stroke-width="2" stroke-linecap="round" stroke-linejoin="round"/>
<path id="Stroke 13" opacity="0.4" d="M7.45387 7.94417H7.45987" stroke="white" stroke-width="2" stroke-linecap="round" stroke-linejoin="round"/>
<path id="Stroke 15" opacity="0.4" d="M4.78102 7.94417H4.78702" stroke="white" stroke-width="2" stroke-linecap="round" stroke-linejoin="round"/>
</g>
</svg>
