<svg width="20" height="21" viewBox="0 0 20 21" fill="none" xmlns="http://www.w3.org/2000/svg">
<g id="Outlined/Cross">
<path id="Union" d="M5.13872 4.32564C4.89464 4.08156 4.49891 4.08156 4.25484 4.32564C4.01076 4.56971 4.01076 4.96544 4.25484 5.20952L9.11619 10.0709L4.25484 14.9322C4.01076 15.1763 4.01076 15.572 4.25484 15.8161C4.49891 16.0602 4.89464 16.0602 5.13872 15.8161L10.0001 10.9548L14.8614 15.816C15.1054 16.0601 15.5012 16.0601 15.7452 15.816C15.9893 15.572 15.9893 15.1762 15.7452 14.9322L10.884 10.0709L15.7453 5.20952C15.9894 4.96544 15.9894 4.56971 15.7453 4.32564C15.5012 4.08156 15.1055 4.08156 14.8614 4.32564L10.0001 9.187L5.13872 4.32564Z" fill="#1A73E8"/>
</g>
</svg>
