<svg width="20" height="20" viewBox="0 0 20 20" fill="none" xmlns="http://www.w3.org/2000/svg">
<g id="Outlined/Cross">
<path id="Union" d="M5.13872 4.25477C4.89464 4.0107 4.49891 4.0107 4.25484 4.25477C4.01076 4.49885 4.01076 4.89458 4.25484 5.13866L9.11619 10L4.25484 14.8614C4.01076 15.1055 4.01076 15.5012 4.25484 15.7453C4.49891 15.9893 4.89464 15.9893 5.13872 15.7453L10.0001 10.8839L14.8614 15.7452C15.1054 15.9893 15.5012 15.9893 15.7452 15.7452C15.9893 15.5011 15.9893 15.1054 15.7452 14.8613L10.884 10L15.7453 5.13866C15.9894 4.89458 15.9894 4.49885 15.7453 4.25477C15.5012 4.0107 15.1055 4.0107 14.8614 4.25477L10.0001 9.11613L5.13872 4.25477Z" fill="#343A40"/>
</g>
</svg>
