<svg width="20" height="19" viewBox="0 0 20 19" fill="none" xmlns="http://www.w3.org/2000/svg">
<g id="vuesax/outline/edit-2">
<g id="edit-2">
<path id="Vector" d="M5.10106 15.2028C4.63848 15.2028 4.20623 15.0436 3.89531 14.7478C3.50098 14.3762 3.31139 13.8151 3.37964 13.2084L3.66023 10.7514C3.71331 10.2888 3.99389 9.67456 4.31998 9.34089L10.5459 2.75097C12.1005 1.10539 13.7233 1.05989 15.3689 2.61447C17.0145 4.16906 17.06 5.79189 15.5054 7.43747L9.27948 14.0274C8.96098 14.3686 8.36948 14.6871 7.90689 14.763L5.46506 15.1801C5.33614 15.1876 5.22239 15.2028 5.10106 15.2028ZM12.9801 2.60689C12.3962 2.60689 11.8881 2.97089 11.3725 3.51689L5.14656 10.1144C4.99489 10.2736 4.82048 10.6528 4.79014 10.8727L4.50956 13.3297C4.47923 13.58 4.53989 13.7847 4.67639 13.9136C4.81289 14.0426 5.01764 14.0881 5.26789 14.0501L7.70973 13.6331C7.92964 13.5951 8.29364 13.398 8.44531 13.2387L14.6712 6.64881C15.6116 5.64781 15.9528 4.72264 14.5802 3.43347C13.9736 2.84956 13.4503 2.60689 12.9801 2.60689Z" fill="white"/>
<path id="Vector_2" d="M14.0493 8.70382C14.0342 8.70382 14.0114 8.70382 13.9962 8.70382C11.6302 8.46874 9.72683 6.67149 9.36283 4.32066C9.31733 4.00974 9.52966 3.72157 9.84058 3.66849C10.1515 3.62299 10.4397 3.83532 10.4927 4.14624C10.7809 5.98141 12.2672 7.39191 14.1176 7.57391C14.4285 7.60424 14.656 7.88482 14.6257 8.19574C14.5877 8.48391 14.3375 8.70382 14.0493 8.70382Z" fill="white"/>
<path id="Vector_3" d="M16.825 17.6519H3.17495C2.86403 17.6519 2.6062 17.3941 2.6062 17.0832C2.6062 16.7722 2.86403 16.5144 3.17495 16.5144H16.825C17.1359 16.5144 17.3937 16.7722 17.3937 17.0832C17.3937 17.3941 17.1359 17.6519 16.825 17.6519Z" fill="white"/>
</g>
</g>
</svg>
