<svg width="24" height="15" viewBox="-4.5 0 24 15" fill="none" xmlns="http://www.w3.org/2000/svg">
<g id="Edit Square">
<path id="Stroke 1" opacity="0.4" d="M7.16198 1.5022H4.66932C2.61932 1.5022 1.33398 2.95971 1.33398 5.02312V10.5894C1.33398 12.6528 2.61332 14.1103 4.66932 14.1103H10.552C12.6087 14.1103 13.888 12.6528 13.888 10.5894V7.89261" stroke="white" stroke-linecap="round" stroke-linejoin="round"/>
<path id="Stroke 3" fill-rule="evenodd" clip-rule="evenodd" d="M5.38541 6.9465L10.3674 1.9433C10.9881 1.32066 11.9941 1.32066 12.6147 1.9433L13.4261 2.75808C14.0467 3.38139 14.0467 4.39234 13.4261 5.01498L8.42008 10.0423C8.14875 10.3148 7.78075 10.4681 7.39675 10.4681H4.89941L4.96208 7.93736C4.97141 7.56512 5.12275 7.21028 5.38541 6.9465Z" stroke="white" stroke-linecap="round" stroke-linejoin="round"/>
<path id="Stroke 5" d="M9.61035 2.71606L12.6544 5.77302" stroke="white" stroke-linecap="round" stroke-linejoin="round"/>
</g>
</svg>
