<svg width="25" height="24" viewBox="0 0 25 24" fill="none" xmlns="http://www.w3.org/2000/svg">
<g id="vuesax/outline/receipt-edit">
<g id="receipt-edit">
<path id="Vector" d="M11.415 21.94C11.185 21.94 10.965 21.84 10.815 21.64L9.80502 20.29C9.59502 20.01 9.31505 19.85 9.01505 19.83C8.70505 19.81 8.41502 19.95 8.17502 20.2C6.72502 21.75 5.62503 21.62 5.09503 21.42C4.55503 21.21 3.64502 20.52 3.64502 18.3V7.04001C3.64502 2.60001 4.92502 1.25 9.11502 1.25H16.665C20.855 1.25 22.135 2.60001 22.135 7.04001V11.3C22.135 11.71 21.795 12.05 21.385 12.05C20.975 12.05 20.635 11.71 20.635 11.3V7.04001C20.635 3.43001 20.005 2.75 16.665 2.75H9.11502C5.77502 2.75 5.14502 3.43001 5.14502 7.04001V18.3C5.14502 19.35 5.40502 19.93 5.64502 20.02C5.82502 20.09 6.31504 19.99 7.07504 19.18C7.62504 18.6 8.34503 18.29 9.09503 18.33C9.83503 18.37 10.535 18.76 11.005 19.39L12.025 20.74C12.275 21.07 12.205 21.54 11.875 21.79C11.725 21.9 11.565 21.94 11.415 21.94Z" fill="white"/>
<path id="Vector_2" d="M16.875 7.75H8.875C8.465 7.75 8.125 7.41 8.125 7C8.125 6.59 8.465 6.25 8.875 6.25H16.875C17.285 6.25 17.625 6.59 17.625 7C17.625 7.41 17.285 7.75 16.875 7.75Z" fill="white"/>
<path id="Vector_3" d="M15.875 11.75H9.875C9.465 11.75 9.125 11.41 9.125 11C9.125 10.59 9.465 10.25 9.875 10.25H15.875C16.285 10.25 16.625 10.59 16.625 11C16.625 11.41 16.285 11.75 15.875 11.75Z" fill="white"/>
<path id="Vector_4" d="M15.6951 21.78C15.3151 21.78 14.9551 21.64 14.6951 21.38C14.3851 21.07 14.2451 20.62 14.3151 20.15L14.5051 18.8C14.5551 18.45 14.7651 18.03 15.0151 17.78L18.555 14.24C19.035 13.76 19.5051 13.51 20.0151 13.46C20.6351 13.4 21.255 13.66 21.835 14.24C22.415 14.82 22.675 15.43 22.615 16.06C22.565 16.56 22.305 17.04 21.835 17.52L18.2951 21.06C18.0451 21.31 17.625 21.52 17.275 21.57L15.925 21.76C15.845 21.77 15.7751 21.78 15.6951 21.78ZM20.185 14.95C20.175 14.95 20.165 14.95 20.155 14.95C20.015 14.96 19.825 15.09 19.615 15.3L16.0751 18.84C16.0451 18.87 15.995 18.97 15.995 19.01L15.8151 20.26L17.0651 20.08C17.1051 20.07 17.205 20.02 17.235 19.99L20.775 16.45C20.985 16.23 21.115 16.05 21.1251 15.91C21.1451 15.71 20.945 15.47 20.775 15.3C20.615 15.14 20.385 14.95 20.185 14.95Z" fill="white"/>
<path id="Vector_5" d="M20.7951 18.2499C20.7251 18.2499 20.6551 18.2399 20.5951 18.2199C19.2751 17.8499 18.2251 16.7999 17.8551 15.4799C17.7451 15.0799 17.9751 14.6699 18.3751 14.5499C18.7751 14.4399 19.1851 14.6699 19.2951 15.0699C19.5251 15.8899 20.1751 16.5399 20.9951 16.7699C21.3951 16.8799 21.6251 17.2999 21.5151 17.6999C21.4251 18.0299 21.1251 18.2499 20.7951 18.2499Z" fill="white"/>
</g>
</g>
</svg>
