<svg width="20" height="21" viewBox="0 0 20 21" fill="none" xmlns="http://www.w3.org/2000/svg">
<g clip-path="url(#clip0_285_7259)">
<path fill-rule="evenodd" clip-rule="evenodd" d="M4.56517 3.5C3.70108 3.5 3 4.21286 3 5.0904V6.02644C3 6.67647 3.24719 7.30158 3.68936 7.77177L8.5351 12.9243L8.53723 12.9211C9.47271 13.8788 9.99905 15.1734 9.99905 16.5233V21.0952C9.99905 21.4007 10.3187 21.5957 10.584 21.4516L13.3436 19.9479C13.7602 19.7204 14.0201 19.2784 14.0201 18.7984V16.5114C14.0201 15.1691 14.539 13.8799 15.466 12.9243L20.3117 7.77177C20.7528 7.30158 21 6.67647 21 6.02644V5.0904C21 4.21286 20.3 3.5 19.4359 3.5H4.56517Z" stroke="#343A40" stroke-width="1.5" stroke-linecap="round" stroke-linejoin="round"/>
<path opacity="0.4" d="M10 7.5H20.5" stroke="#343A40" stroke-width="1.5" stroke-linecap="round" stroke-linejoin="round"/>
</g>
<defs>
<clipPath id="clip0_285_7259">
<rect width="20" height="20" fill="white" transform="translate(0 0.5)"/>
</clipPath>
</defs>
</svg>
