<svg width="25" height="24" viewBox="0 0 25 24" fill="none" xmlns="http://www.w3.org/2000/svg">
<g id="vuesax/outline/user-add">
<g id="user-add">
<path id="Vector" d="M12.875 12.75C9.705 12.75 7.125 10.17 7.125 7C7.125 3.83 9.705 1.25 12.875 1.25C16.045 1.25 18.625 3.83 18.625 7C18.625 10.17 16.045 12.75 12.875 12.75ZM12.875 2.75C10.535 2.75 8.625 4.66 8.625 7C8.625 9.34 10.535 11.25 12.875 11.25C15.215 11.25 17.125 9.34 17.125 7C17.125 4.66 15.215 2.75 12.875 2.75Z" fill="white"/>
<path id="Vector_2" d="M4.28516 22.75C3.87516 22.75 3.53516 22.41 3.53516 22C3.53516 17.73 7.72515 14.25 12.8752 14.25C13.8852 14.25 14.8751 14.38 15.8351 14.65C16.2351 14.76 16.4652 15.17 16.3552 15.57C16.2452 15.97 15.8351 16.2 15.4352 16.09C14.6152 15.86 13.7552 15.75 12.8752 15.75C8.55515 15.75 5.03516 18.55 5.03516 22C5.03516 22.41 4.69516 22.75 4.28516 22.75Z" fill="white"/>
<path id="Vector_3" d="M18.875 22.75C17.695 22.75 16.575 22.31 15.705 21.52C15.355 21.22 15.045 20.85 14.805 20.44C14.365 19.72 14.125 18.87 14.125 18C14.125 16.75 14.605 15.58 15.465 14.69C16.365 13.76 17.575 13.25 18.875 13.25C20.235 13.25 21.525 13.83 22.405 14.83C23.185 15.7 23.625 16.82 23.625 18C23.625 18.38 23.575 18.76 23.475 19.12C23.375 19.57 23.185 20.04 22.925 20.45C22.095 21.87 20.535 22.75 18.875 22.75ZM18.875 14.75C17.985 14.75 17.165 15.1 16.545 15.73C15.955 16.34 15.625 17.14 15.625 18C15.625 18.59 15.785 19.17 16.095 19.67C16.255 19.95 16.465 20.2 16.705 20.41C17.305 20.96 18.075 21.26 18.875 21.26C20.005 21.26 21.075 20.66 21.655 19.69C21.825 19.41 21.955 19.09 22.025 18.78C22.095 18.52 22.125 18.27 22.125 18.01C22.125 17.21 21.825 16.44 21.285 15.84C20.685 15.14 19.805 14.75 18.875 14.75Z" fill="white"/>
<path id="Vector_4" d="M20.3748 18.73H17.3848C16.9748 18.73 16.6348 18.39 16.6348 17.98C16.6348 17.57 16.9748 17.23 17.3848 17.23H20.3748C20.7848 17.23 21.1248 17.57 21.1248 17.98C21.1248 18.39 20.7848 18.73 20.3748 18.73Z" fill="white"/>
<path id="Vector_5" d="M18.875 20.26C18.465 20.26 18.125 19.92 18.125 19.51V16.52C18.125 16.11 18.465 15.77 18.875 15.77C19.285 15.77 19.625 16.11 19.625 16.52V19.51C19.625 19.93 19.285 20.26 18.875 20.26Z" fill="white"/>
</g>
</g>
</svg>
