<svg width="25" height="24" viewBox="0 0 25 24" fill="none" xmlns="http://www.w3.org/2000/svg">
<g id="vuesax/outline/document-download">
<g id="document-download">
<path id="Vector" d="M9.125 17.75C9.025 17.75 8.935 17.73 8.835 17.69C8.555 17.58 8.375 17.3 8.375 17V11C8.375 10.59 8.715 10.25 9.125 10.25C9.535 10.25 9.875 10.59 9.875 11V15.19L10.595 14.47C10.885 14.18 11.365 14.18 11.655 14.47C11.945 14.76 11.945 15.24 11.655 15.53L9.655 17.53C9.515 17.67 9.315 17.75 9.125 17.75Z" fill="#343A40"/>
<path id="Vector_2" d="M9.12494 17.75C8.93494 17.75 8.74494 17.68 8.59494 17.53L6.59494 15.53C6.30494 15.24 6.30494 14.76 6.59494 14.47C6.88494 14.18 7.36494 14.18 7.65494 14.47L9.65494 16.47C9.94494 16.76 9.94494 17.24 9.65494 17.53C9.50494 17.68 9.31494 17.75 9.12494 17.75Z" fill="#343A40"/>
<path id="Vector_3" d="M15.125 22.75H9.125C3.695 22.75 1.375 20.43 1.375 15V9C1.375 3.57 3.695 1.25 9.125 1.25H14.125C14.535 1.25 14.875 1.59 14.875 2C14.875 2.41 14.535 2.75 14.125 2.75H9.125C4.515 2.75 2.875 4.39 2.875 9V15C2.875 19.61 4.515 21.25 9.125 21.25H15.125C19.735 21.25 21.375 19.61 21.375 15V10C21.375 9.59 21.715 9.25 22.125 9.25C22.535 9.25 22.875 9.59 22.875 10V15C22.875 20.43 20.555 22.75 15.125 22.75Z" fill="#343A40"/>
<path id="Vector_4" d="M22.125 10.75H18.125C14.705 10.75 13.375 9.41999 13.375 5.99999V1.99999C13.375 1.69999 13.555 1.41999 13.835 1.30999C14.115 1.18999 14.435 1.25999 14.655 1.46999L22.655 9.46999C22.865 9.67999 22.935 10.01 22.815 10.29C22.695 10.57 22.425 10.75 22.125 10.75ZM14.875 3.80999V5.99999C14.875 8.57999 15.545 9.24999 18.125 9.24999H20.315L14.875 3.80999Z" fill="#343A40"/>
</g>
</g>
</svg>
