<svg width="21" height="20" viewBox="0 0 21 20" fill="none" xmlns="http://www.w3.org/2000/svg">
<g id="Group 217">
<g id="Ellipse 17">
<mask id="path-1-inside-1_58_1375" fill="white">
<path d="M10.5 0C12.7238 2.65181e-08 14.8841 0.741222 16.6394 2.10648C18.3947 3.47173 19.6449 5.38313 20.1923 7.53846L19.3714 7.74695C18.8704 5.77417 17.7261 4.02466 16.1194 2.77504C14.5128 1.52542 12.5354 0.846979 10.5 0.846979V0Z"/>
</mask>
<path d="M10.5 0C12.7238 2.65181e-08 14.8841 0.741222 16.6394 2.10648C18.3947 3.47173 19.6449 5.38313 20.1923 7.53846L19.3714 7.74695C18.8704 5.77417 17.7261 4.02466 16.1194 2.77504C14.5128 1.52542 12.5354 0.846979 10.5 0.846979V0Z" stroke="#FFC00C" stroke-width="1.33333" mask="url(#path-1-inside-1_58_1375)"/>
</g>
<path id="Ellipse 18" d="M18.314 8.7294C18.5653 10.2749 18.3526 11.8602 17.703 13.2848C17.0533 14.7094 15.9957 15.9094 14.6641 16.733C13.3324 17.5566 11.7864 17.9668 10.2216 17.9118C8.65684 17.8567 7.1435 17.3389 5.87299 16.4238C4.60249 15.5087 3.63188 14.2373 3.0839 12.7706C2.53593 11.3038 2.4352 9.70754 2.79446 8.18354C3.15371 6.65955 3.95682 5.27631 5.10222 4.20874C6.24762 3.14118 7.68386 2.43724 9.22933 2.18594L10.4999 9.99998L18.314 8.7294Z" fill="#D9D9D9"/>
</g>
</svg>
