<svg width="21" height="21" viewBox="0 0 21 21" fill="none" xmlns="http://www.w3.org/2000/svg">
<g id="Group 217">
<g id="Ellipse 17">
<mask id="path-1-inside-1_285_7551" fill="white">
<path d="M20.5 10.6689C20.5 16.1918 16.0228 20.6689 10.5 20.6689C4.97715 20.6689 0.5 16.1918 0.5 10.6689C0.5 5.1461 4.97715 0.668945 10.5 0.668945C16.0228 0.668945 20.5 5.1461 20.5 10.6689ZM1.34698 10.6689C1.34698 15.724 5.44493 19.822 10.5 19.822C15.5551 19.822 19.653 15.724 19.653 10.6689C19.653 5.61387 15.5551 1.51592 10.5 1.51592C5.44493 1.51592 1.34698 5.61387 1.34698 10.6689Z"/>
</mask>
<path d="M20.5 10.6689C20.5 16.1918 16.0228 20.6689 10.5 20.6689C4.97715 20.6689 0.5 16.1918 0.5 10.6689C0.5 5.1461 4.97715 0.668945 10.5 0.668945C16.0228 0.668945 20.5 5.1461 20.5 10.6689ZM1.34698 10.6689C1.34698 15.724 5.44493 19.822 10.5 19.822C15.5551 19.822 19.653 15.724 19.653 10.6689C19.653 5.61387 15.5551 1.51592 10.5 1.51592C5.44493 1.51592 1.34698 5.61387 1.34698 10.6689Z" stroke="#FFC00C" stroke-width="1.33333" stroke-dasharray="1.33 1.33" mask="url(#path-1-inside-1_285_7551)"/>
</g>
</g>
</svg>
