<svg width="36" height="36" viewBox="0 0 36 36" fill="none" xmlns="http://www.w3.org/2000/svg">
<circle cx="17.8169" cy="18.1584" r="17.5" fill="#28A745"/>
<path d="M16.2219 7.94392C13.7824 8.45773 12.5296 10.0655 12.2659 13.0075C12.1175 14.6649 12.3977 16.1566 13.1313 17.6732C13.3785 18.1953 13.5845 18.6594 13.5845 18.7174C13.5845 18.7754 13.2631 19.0075 12.8675 19.2395C12.4637 19.4633 11.4417 20.0599 10.5763 20.5489C9.71916 21.0461 8.6807 21.6428 8.26861 21.8749L7.52686 22.3058L7.54334 23.7229C7.55982 25.3141 7.65048 25.8942 7.98015 26.5655C8.26037 27.1207 8.98565 28.0075 9.29059 28.1732C9.79334 28.4301 10.7906 28.4633 17.7878 28.4633C24.851 28.4633 25.7824 28.4301 26.3098 28.1566C26.623 27.9909 27.1835 27.3776 27.5131 26.8307C27.9417 26.1262 28.0241 25.687 28.0653 23.9052L28.1065 22.2892L25.09 20.5655C22.8977 19.3058 22.0736 18.792 22.0736 18.6843C22.0736 18.6097 22.2302 18.2284 22.428 17.8472C23.3428 16.0489 23.623 13.9356 23.2192 11.9467C22.7906 9.80027 21.7027 8.58204 19.7247 8.02679C19.0571 7.83619 16.9554 7.79475 16.2219 7.94392ZM18.7933 9.72569C20.3758 9.93287 21.0928 10.5213 21.4142 11.8887C21.5791 12.5682 21.5461 14.9135 21.373 15.7008C21.0763 17.0268 20.2109 18.2865 19.2878 18.7423C18.851 18.9577 18.7439 18.9743 17.8291 18.9743C16.9142 18.9743 16.8071 18.9577 16.3703 18.7423C15.4554 18.2947 14.4994 16.9191 14.2439 15.7008C13.9966 14.4992 14.0626 12.2947 14.384 11.3086C14.5736 10.7285 15.0681 10.2229 15.678 9.99088C16.4692 9.69254 17.7219 9.59309 18.7933 9.72569ZM23.7219 21.9163C25.0159 22.6539 26.1203 23.3003 26.178 23.3417C26.3922 23.524 26.2439 25.4881 25.9637 26.0599C25.8895 26.2174 25.7247 26.3997 25.601 26.4577C25.2714 26.6152 10.3043 26.6152 9.9829 26.4577C9.62026 26.2837 9.45543 25.7036 9.40598 24.4439L9.36477 23.3666L11.4911 22.1483C12.6697 21.4771 13.9554 20.7561 14.351 20.5406L15.0763 20.1594L15.6285 20.3831C17.351 21.0793 18.5131 21.0876 19.9719 20.3914L20.5488 20.118L20.9609 20.3417C21.1917 20.466 22.428 21.1787 23.7219 21.9163Z" fill="white"/>
</svg>
