<svg width="37" height="37" viewBox="0 0 37 37" fill="none" xmlns="http://www.w3.org/2000/svg">
<circle cx="18.8169" cy="18.1584" r="17.5" fill="#1E00CC" stroke="white"/>
<path d="M26.8163 16.9085H10.8163C10.5863 16.9085 10.3763 16.8085 10.2363 16.6285C10.0963 16.4585 10.0363 16.2185 10.0863 15.9985L11.2163 10.5985C11.5863 8.84853 12.3363 7.23853 15.3063 7.23853H22.3363C25.3063 7.23853 26.0563 8.85853 26.4263 10.5985L27.5563 16.0085C27.6063 16.2285 27.5463 16.4585 27.4063 16.6385C27.2563 16.8085 27.0463 16.9085 26.8163 16.9085ZM11.7363 15.4085H25.8863L24.9463 10.9085C24.6663 9.59853 24.3363 8.73853 22.3263 8.73853H15.3063C13.2963 8.73853 12.9663 9.59853 12.6863 10.9085L11.7363 15.4085Z" fill="white"/>
<path d="M26.7765 27.9086H24.8965C23.2765 27.9086 22.9665 26.9786 22.7665 26.3686L22.5665 25.7686C22.3065 25.0086 22.2765 24.9086 21.3765 24.9086H16.2565C15.3565 24.9086 15.2965 25.0786 15.0665 25.7686L14.8665 26.3686C14.6565 26.9886 14.3565 27.9086 12.7365 27.9086H10.8565C10.0665 27.9086 9.30649 27.5786 8.77649 26.9986C8.25649 26.4286 8.00649 25.6686 8.07649 24.9086L8.63649 18.8186C8.78649 17.1686 9.22649 15.4086 12.4365 15.4086H25.1965C28.4065 15.4086 28.8365 17.1686 28.9965 18.8186L29.5565 24.9086C29.6265 25.6686 29.3765 26.4286 28.8565 26.9986C28.3265 27.5786 27.5665 27.9086 26.7765 27.9086ZM16.2565 23.4086H21.3765C23.1965 23.4086 23.6265 24.2186 23.9865 25.2786L24.1965 25.8986C24.3665 26.4086 24.3665 26.4186 24.9065 26.4186H26.7865C27.1565 26.4186 27.5065 26.2686 27.7565 25.9986C27.9965 25.7386 28.1065 25.4086 28.0765 25.0586L27.5165 18.9686C27.3865 17.6186 27.2265 16.9186 25.2165 16.9186H12.4365C10.4165 16.9186 10.2565 17.6186 10.1365 18.9686L9.57649 25.0586C9.54649 25.4086 9.65649 25.7386 9.89649 25.9986C10.1365 26.2686 10.4965 26.4186 10.8665 26.4186H12.7465C13.2865 26.4186 13.2865 26.4086 13.4565 25.9086L13.6565 25.2986C13.9065 24.4986 14.2765 23.4086 16.2565 23.4086Z" fill="white"/>
<path d="M10.8164 13.9086H9.81641C9.40641 13.9086 9.06641 13.5686 9.06641 13.1586C9.06641 12.7486 9.40641 12.4086 9.81641 12.4086H10.8164C11.2264 12.4086 11.5664 12.7486 11.5664 13.1586C11.5664 13.5686 11.2264 13.9086 10.8164 13.9086Z" fill="white"/>
<path d="M27.8164 13.9086H26.8164C26.4064 13.9086 26.0664 13.5686 26.0664 13.1586C26.0664 12.7486 26.4064 12.4086 26.8164 12.4086H27.8164C28.2264 12.4086 28.5664 12.7486 28.5664 13.1586C28.5664 13.5686 28.2264 13.9086 27.8164 13.9086Z" fill="white"/>
<path d="M18.8164 10.9086C18.4064 10.9086 18.0664 10.5686 18.0664 10.1586V8.15857C18.0664 7.74857 18.4064 7.40857 18.8164 7.40857C19.2264 7.40857 19.5664 7.74857 19.5664 8.15857V10.1586C19.5664 10.5686 19.2264 10.9086 18.8164 10.9086Z" fill="white"/>
<path d="M20.3164 10.9086H17.3164C16.9064 10.9086 16.5664 10.5686 16.5664 10.1586C16.5664 9.74857 16.9064 9.40857 17.3164 9.40857H20.3164C20.7264 9.40857 21.0664 9.74857 21.0664 10.1586C21.0664 10.5686 20.7264 10.9086 20.3164 10.9086Z" fill="white"/>
<path d="M15.8164 20.9086H12.8164C12.4064 20.9086 12.0664 20.5686 12.0664 20.1586C12.0664 19.7486 12.4064 19.4086 12.8164 19.4086H15.8164C16.2264 19.4086 16.5664 19.7486 16.5664 20.1586C16.5664 20.5686 16.2264 20.9086 15.8164 20.9086Z" fill="white"/>
<path d="M24.8164 20.9086H21.8164C21.4064 20.9086 21.0664 20.5686 21.0664 20.1586C21.0664 19.7486 21.4064 19.4086 21.8164 19.4086H24.8164C25.2264 19.4086 25.5664 19.7486 25.5664 20.1586C25.5664 20.5686 25.2264 20.9086 24.8164 20.9086Z" fill="white"/>
</svg>
