<svg width="20" height="21" viewBox="0 0 20 21" fill="none" xmlns="http://www.w3.org/2000/svg">
<g id="row-vertical">
<g id="vuesax/outline/row-vertical">
<g id="row-vertical_2">
<path id="Vector" d="M16.5832 6.9358H3.4165C1.8165 6.9358 1.0415 6.40717 1.0415 5.32834V3.14911C1.0415 2.06489 1.8165 1.54166 3.4165 1.54166H16.5832C18.1832 1.54166 18.9582 2.07028 18.9582 3.14911V5.32834C18.9582 6.40717 18.1832 6.9358 16.5832 6.9358ZM3.4165 2.35078C2.57484 2.35078 2.2915 2.46405 2.2915 3.14911V5.32834C2.2915 6.0134 2.57484 6.12668 3.4165 6.12668H16.5832C17.4248 6.12668 17.7082 6.0134 17.7082 5.32834V3.14911C17.7082 2.46405 17.4248 2.35078 16.5832 2.35078H3.4165Z" fill="#1A73E8"/>
<path id="Vector_2" d="M16.5832 19H3.4165C1.8165 19 1.0415 18.4714 1.0415 17.3926V15.2133C1.0415 14.1291 1.8165 13.6059 3.4165 13.6059H16.5832C18.1832 13.6059 18.9582 14.1345 18.9582 15.2133V17.3926C18.9582 18.4714 18.1832 19 16.5832 19ZM3.4165 14.415C2.57484 14.415 2.2915 14.5283 2.2915 15.2133V17.3926C2.2915 18.0776 2.57484 18.1909 3.4165 18.1909H16.5832C17.4248 18.1909 17.7082 18.0776 17.7082 17.3926V15.2133C17.7082 14.5283 17.4248 14.415 16.5832 14.415H3.4165Z" fill="#1A73E8"/>
<g id="Vector_3">
<path d="M17.0212 9.58934L4.19188 12.5506C2.63287 12.9104 1.75883 12.5697 1.5162 11.5185L1.02608 9.39507C0.782228 8.33862 1.4197 7.65449 2.9787 7.29465L15.808 4.33339C17.3671 3.97354 18.2411 4.31432 18.4837 5.36551L18.9739 7.48891C19.2165 8.5401 18.5802 9.22949 17.0212 9.58934ZM3.16068 8.08304C2.34058 8.27233 2.08998 8.44643 2.24405 9.11394L2.73417 11.2373C2.88825 11.9048 3.1898 11.9515 4.0099 11.7622L16.8392 8.80094C17.6593 8.61165 17.9099 8.43755 17.7559 7.77004L17.2658 5.64664C17.1117 4.97914 16.8101 4.93249 15.99 5.12178L3.16068 8.08304Z" fill="white"/>
<path d="M3.16068 8.08304C2.34058 8.27233 2.08998 8.44643 2.24405 9.11394L2.73417 11.2373C2.88825 11.9048 3.1898 11.9515 4.0099 11.7622L16.8392 8.80094C17.6593 8.61165 17.9099 8.43755 17.7559 7.77004L17.2658 5.64664C17.1117 4.97914 16.8101 4.93249 15.99 5.12178L3.16068 8.08304Z" fill="white"/>
</g>
<path id="Vector_4" d="M17.0212 9.58934L4.19188 12.5506C2.63287 12.9104 1.75883 12.5697 1.5162 11.5185L1.02608 9.39507C0.782228 8.33862 1.4197 7.65449 2.9787 7.29465L15.808 4.33339C17.3671 3.97354 18.2411 4.31432 18.4837 5.36551L18.9739 7.48891C19.2165 8.5401 18.5802 9.22949 17.0212 9.58934ZM3.16068 8.08304C2.34058 8.27233 2.08998 8.44643 2.24405 9.11394L2.73417 11.2373C2.88825 11.9048 3.1898 11.9515 4.0099 11.7622L16.8392 8.80094C17.6593 8.61165 17.9099 8.43755 17.7559 7.77004L17.2658 5.64664C17.1117 4.97914 16.8101 4.93249 15.99 5.12178L3.16068 8.08304Z" fill="#1A73E8"/>
</g>
</g>
</g>
</svg>
