<svg width="25" height="24" viewBox="0 0 25 24" fill="none" xmlns="http://www.w3.org/2000/svg">
<g id="vuesax/outline/menu">
<g id="menu">
<path id="Vector" d="M21.0251 7.75H3.02515C2.61515 7.75 2.27515 7.41 2.27515 7C2.27515 6.59 2.61515 6.25 3.02515 6.25H21.0251C21.4351 6.25 21.7751 6.59 21.7751 7C21.7751 7.41 21.4351 7.75 21.0251 7.75Z" fill="#1A73E8"/>
<path id="Vector_2" d="M21.0251 12.75H3.02515C2.61515 12.75 2.27515 12.41 2.27515 12C2.27515 11.59 2.61515 11.25 3.02515 11.25H21.0251C21.4351 11.25 21.7751 11.59 21.7751 12C21.7751 12.41 21.4351 12.75 21.0251 12.75Z" fill="#1A73E8"/>
<path id="Vector_3" d="M21.0251 17.75H3.02515C2.61515 17.75 2.27515 17.41 2.27515 17C2.27515 16.59 2.61515 16.25 3.02515 16.25H21.0251C21.4351 16.25 21.7751 16.59 21.7751 17C21.7751 17.41 21.4351 17.75 21.0251 17.75Z" fill="#1A73E8"/>
</g>
</g>
</svg>
