<svg width="20" height="19" viewBox="0 0 20 19" fill="none" xmlns="http://www.w3.org/2000/svg">
<g id="messages">
<g id="vuesax/outline/messages">
<g id="messages_2">
<path id="Vector" d="M6.40572 14.7251C6.34506 14.7251 6.2844 14.7175 6.22373 14.71C5.76873 14.6493 5.38198 14.3611 5.1924 13.9516L4.23689 11.851C2.72022 10.7287 1.84814 9.0528 1.84814 7.2328C1.84814 3.99471 4.65398 1.35571 8.10439 1.35571C10.5386 1.35571 12.7606 2.69037 13.7691 4.76062C14.1559 5.52654 14.3606 6.36071 14.3606 7.2328C14.3606 10.3875 11.6989 12.9734 8.3774 13.1023L7.4219 14.255C7.16407 14.5507 6.79247 14.7251 6.40572 14.7251ZM8.10439 2.48562C5.28339 2.48562 2.98564 4.60896 2.98564 7.22521C2.98564 8.71912 3.72881 10.0993 5.01797 11.0093C5.10139 11.0699 5.16964 11.1458 5.20756 11.2368L6.22373 13.4739C6.26165 13.5573 6.33748 13.58 6.3754 13.58C6.41331 13.5876 6.48915 13.58 6.54223 13.5194L7.66456 12.1696C7.77073 12.0406 7.92998 11.9648 8.10439 11.9648C10.9254 11.9648 13.2231 9.84146 13.2231 7.22521C13.2231 6.53512 13.0639 5.87535 12.753 5.2611C11.934 3.57002 10.1064 2.48562 8.10439 2.48562Z" fill="white"/>
<path id="Vector_2" d="M13.5948 17.6521C13.2005 17.6521 12.8365 17.4776 12.5786 17.1743L11.6231 16.0292C9.78796 15.9534 8.05895 15.1116 6.95179 13.7466C6.77737 13.5343 6.78496 13.231 6.95938 13.0262L7.66462 12.1769C7.77079 12.048 7.93004 11.9722 8.10446 11.9722C10.9255 11.9722 13.2232 9.84882 13.2232 7.23257C13.2232 6.54248 13.064 5.88271 12.753 5.26846C12.6545 5.0713 12.6772 4.83622 12.8137 4.66181C12.9502 4.48739 13.1777 4.41154 13.39 4.45704C16.1959 5.10162 18.1524 7.44489 18.1524 10.1597C18.1524 11.9797 17.2803 13.6557 15.7636 14.778L14.8081 16.8785C14.611 17.3032 14.2242 17.5914 13.7616 17.6445C13.7085 17.6521 13.6479 17.6521 13.5948 17.6521ZM8.14995 13.3675C9.09787 14.3305 10.4629 14.8917 11.8961 14.8917C12.063 14.8917 12.2222 14.9676 12.336 15.0965L13.4583 16.4463C13.5114 16.5145 13.5796 16.5221 13.6251 16.5146C13.6555 16.5146 13.7389 16.4918 13.7844 16.4008L14.8005 14.1637C14.846 14.0727 14.9067 13.9893 14.9901 13.9362C16.2793 13.0262 17.0225 11.646 17.0225 10.1521C17.0225 8.33213 15.9077 6.71692 14.209 5.92067C14.3152 6.34533 14.3683 6.77756 14.3683 7.22498C14.3683 10.3796 11.7065 12.9656 8.38504 13.0945L8.14995 13.3675Z" fill="white"/>
</g>
</g>
</g>
</svg>
