<svg width="24" height="26" viewBox="0 0 24 26" fill="none" xmlns="http://www.w3.org/2000/svg">
<g id="24 / basic / more-vertical">
<path id="icon" fill-rule="evenodd" clip-rule="evenodd" d="M10 5.95177C10 7.06395 10.8954 7.96555 12 7.96555C13.1046 7.96555 14 7.06395 14 5.95177C14 4.83959 13.1046 3.93799 12 3.93799C10.8954 3.93799 10 4.83959 10 5.95177ZM12 15.0138C10.8954 15.0138 10 14.1122 10 13C10 11.8878 10.8954 10.9862 12 10.9862C13.1046 10.9862 14 11.8878 14 13C14 14.1122 13.1046 15.0138 12 15.0138ZM12 22.062C10.8954 22.062 10 21.1604 10 20.0482C10 18.9361 10.8954 18.0345 12 18.0345C13.1046 18.0345 14 18.9361 14 20.0482C14 21.1604 13.1046 22.062 12 22.062Z" fill="black"/>
</g>
</svg>
