<svg width="24" height="25" viewBox="0 0 24 25" fill="none" xmlns="http://www.w3.org/2000/svg">
<g id="24 / notifications / bell">
<path id="icon" fill-rule="evenodd" clip-rule="evenodd" d="M19 10.8209C19 6.73378 16.7616 3.89704 13.8654 3.04543C13.7605 2.77221 13.5948 2.51821 13.3695 2.30508C12.5997 1.57686 11.4003 1.57686 10.6305 2.30508C10.4057 2.51774 10.2402 2.77109 10.1353 3.04363C7.23535 3.89153 5 6.72207 5 10.8209C5 13.473 4.46898 14.959 3.48596 16.0359C3.32161 16.216 2.87634 16.6284 2.5747 16.9078L2.57468 16.9078L2.57466 16.9079C2.43195 17.04 2.32139 17.1424 2.28796 17.1764L2 17.4704V20.904H8.08798C8.29384 21.9734 8.87009 22.6888 9.9122 23.3291C11.1941 24.1168 12.8059 24.1168 14.0878 23.3291C15.0075 22.764 15.6241 21.8956 15.8743 20.904H22V17.4704L21.712 17.1764C21.6817 17.1454 21.5757 17.0469 21.4371 16.9182L21.437 16.9181C21.1363 16.6388 20.6823 16.2171 20.5154 16.0335C19.5317 14.9516 19 13.4636 19 10.8209ZM13.7367 20.904H10.1786C10.3199 21.1686 10.5607 21.3685 10.954 21.6101C11.5963 22.0048 12.4037 22.0048 13.046 21.6101C13.3434 21.4274 13.5758 21.1856 13.7367 20.904ZM19.0402 17.3933C19.2506 17.6248 19.7016 18.0478 20 18.3242V18.8902H4V18.3246C4.29607 18.0515 4.74843 17.6288 4.95849 17.3987C6.29422 15.9353 7 13.9602 7 10.8209C7 7.01477 9.33277 4.79205 12 4.79205C14.6597 4.79205 17 7.02625 17 10.8209C17 13.9501 17.706 15.9259 19.0402 17.3933Z" fill="#1A73E8"/>
</g>
</svg>
