<svg width="24" height="24" viewBox="0 0 24 24" fill="none" xmlns="http://www.w3.org/2000/svg">
<path d="M17.8181 3.02239C18.2199 2.92193 18.6271 3.16625 18.7276 3.56809L19.4776 6.56809C19.5781 6.96994 19.3338 7.37714 18.9319 7.4776C18.5301 7.57806 18.1229 7.33374 18.0224 6.9319L17.7462 5.82702C17.5454 6.16868 17.2952 6.57596 17.0061 7.00881C16.24 8.15595 15.1384 9.57995 13.9086 10.3789C12.4982 11.2952 10.4697 11.6825 8.89263 11.8557C8.08617 11.9443 7.36211 11.9803 6.83958 11.9942C6.57793 12.0011 6.36579 12.0026 6.21793 12.0023C6.14398 12.0021 6.08603 12.0015 6.04593 12.0009L5.99936 12.0001L5.98653 11.9999L5.9828 11.9998L5.98162 11.9998L6 11.25C5.9809 11.9997 5.98162 11.9998 5.98162 11.9998C5.56754 11.9892 5.2397 11.6449 5.25025 11.2309C5.2608 10.8168 5.60499 10.4897 6.01904 10.5002L6.02074 10.5003L6.02946 10.5004L6.0675 10.5011C6.1018 10.5016 6.15361 10.5021 6.22114 10.5023C6.35624 10.5026 6.55393 10.5012 6.79972 10.4947C7.29208 10.4816 7.97338 10.4477 8.72883 10.3647C10.2756 10.1948 11.9971 9.83204 13.0914 9.12106C14.0481 8.49949 15.0089 7.29849 15.7587 6.17576C16.0832 5.68996 16.3563 5.23698 16.5599 4.8831L15.1819 5.2276C14.7801 5.32806 14.3729 5.08374 14.2724 4.6819C14.1719 4.28005 14.4163 3.87285 14.8181 3.77239L17.8181 3.02239Z" fill="#343A40"/>
<path d="M16.5 12.75C16.5 12.3358 16.8358 12 17.25 12H18.75C19.1642 12 19.5 12.3358 19.5 12.75V19.5C19.5 19.9142 19.1642 20.25 18.75 20.25H17.25C16.8358 20.25 16.5 19.9142 16.5 19.5V12.75Z" fill="#343A40"/>
<path d="M11.25 14.25C10.8358 14.25 10.5 14.5858 10.5 15V19.5C10.5 19.9142 10.8358 20.25 11.25 20.25H12.75C13.1642 20.25 13.5 19.9142 13.5 19.5V15C13.5 14.5858 13.1642 14.25 12.75 14.25H11.25Z" fill="#343A40"/>
<path d="M5.25 15.75C4.83579 15.75 4.5 16.0858 4.5 16.5L4.5 19.5C4.5 19.9142 4.83579 20.25 5.25 20.25H6.75C7.16421 20.25 7.5 19.9142 7.5 19.5V16.5C7.5 16.0858 7.16421 15.75 6.75 15.75H5.25Z" fill="#343A40"/>
</svg>
