<svg width="24" height="24" viewBox="0 0 24 24" fill="none" xmlns="http://www.w3.org/2000/svg">
<path d="M10.3802 17.2715H7.13163C6.7802 17.2715 6.48877 16.98 6.48877 16.6286V12.24C6.48877 11.3486 7.21733 10.62 8.10876 10.62H10.3802C10.7316 10.62 11.023 10.9115 11.023 11.2629V16.62C11.023 16.98 10.7316 17.2715 10.3802 17.2715ZM7.77448 15.9857H9.73732V11.9143H8.10876C7.92876 11.9143 7.77448 12.06 7.77448 12.2486V15.9857Z" fill="#343A40"/>
<path d="M13.6204 17.2714H10.3719C10.0204 17.2714 9.729 16.98 9.729 16.6286V8.34856C9.729 7.45713 10.4576 6.72855 11.349 6.72855H12.6519C13.5433 6.72855 14.2719 7.45713 14.2719 8.34856V16.6286C14.2633 16.98 13.9804 17.2714 13.6204 17.2714ZM11.0233 15.9857H12.9861V8.34856C12.9861 8.16856 12.8404 8.01426 12.6519 8.01426H11.349C11.169 8.01426 11.0147 8.15999 11.0147 8.34856V15.9857H11.0233Z" fill="#343A40"/>
<path d="M16.8689 17.2714H13.6204C13.269 17.2714 12.9775 16.98 12.9775 16.6286V12.7286C12.9775 12.3771 13.269 12.0857 13.6204 12.0857H15.8918C16.7832 12.0857 17.5118 12.8143 17.5118 13.7057V16.6286C17.5118 16.98 17.2289 17.2714 16.8689 17.2714ZM14.2633 15.9857H16.2261V13.7057C16.2261 13.5257 16.0804 13.3714 15.8918 13.3714H14.2633V15.9857Z" fill="#343A40"/>
<path d="M14.5714 21.2143H9.4285C4.77422 21.2143 2.78564 19.2257 2.78564 14.5714L2.78564 9.42856C2.78564 4.77428 4.77422 2.78571 9.4285 2.78571L14.5714 2.78571C19.2256 2.78571 21.2142 4.77428 21.2142 9.42856V14.5714C21.2142 19.2257 19.2256 21.2143 14.5714 21.2143ZM9.4285 4.07142C5.47707 4.07142 4.07136 5.47713 4.07136 9.42856V14.5714C4.07136 18.5228 5.47707 19.9286 9.4285 19.9286H14.5714C18.5228 19.9286 19.9285 18.5228 19.9285 14.5714V9.42856C19.9285 5.47713 18.5228 4.07142 14.5714 4.07142H9.4285Z" fill="#343A40"/>
</svg>
