<svg width="24" height="21" viewBox="-2 0 24 21" fill="none" xmlns="http://www.w3.org/2000/svg">
<path d="M13.4097 15.7169C11.7399 17.0147 9.63851 17.6269 7.53338 17.4289C5.42824 17.231 3.47766 16.2377 2.07881 14.6513C0.679961 13.065 -0.0619809 11.0048 0.00405863 8.89036C0.0700982 6.7759 0.939153 4.76611 2.43427 3.27023C3.92939 1.77435 5.93814 0.904851 8.05152 0.838778C10.1649 0.772704 12.224 1.51502 13.8096 2.91459C15.3951 4.31416 16.3879 6.26574 16.5857 8.37195C16.7836 10.4782 16.1717 12.5806 14.8745 14.2513L19.6936 19.0548C20.1016 19.4615 20.1022 20.122 19.695 20.5294C19.2878 20.9368 18.6273 20.9365 18.2204 20.5287L13.4201 15.7169H13.4097ZM8.31916 15.3843C9.13773 15.3843 9.94829 15.2229 10.7045 14.9095C11.4608 14.5961 12.148 14.1367 12.7268 13.5576C13.3056 12.9785 13.7647 12.291 14.078 11.5343C14.3913 10.7777 14.5525 9.96673 14.5525 9.14774C14.5525 8.32875 14.3913 7.51778 14.078 6.76113C13.7647 6.00448 13.3056 5.31697 12.7268 4.73786C12.148 4.15874 11.4608 3.69936 10.7045 3.38595C9.94829 3.07253 9.13773 2.91122 8.31916 2.91122C6.66598 2.91122 5.08051 3.56828 3.91153 4.73786C2.74256 5.90743 2.08583 7.49371 2.08583 9.14774C2.08583 10.8018 2.74256 12.388 3.91153 13.5576C5.08051 14.7272 6.66598 15.3843 8.31916 15.3843Z" fill="#1A73E8"/>
</svg>
