<svg width="24" height="17" viewBox="-3.5 0 24 17" fill="none" xmlns="http://www.w3.org/2000/svg">
<g id="vuesax/outline/sms-tracking">
<g id="sms-tracking">
<path id="Vector" d="M11.8335 14.7472H5.16683C4.8935 14.7472 4.66683 14.5205 4.66683 14.2472C4.66683 13.9738 4.8935 13.7472 5.16683 13.7472H11.8335C13.7402 13.7472 14.6668 12.8205 14.6668 10.9138V6.24715C14.6668 4.34049 13.7402 3.41382 11.8335 3.41382H5.16683C3.26016 3.41382 2.3335 4.34049 2.3335 6.24715C2.3335 6.52049 2.10683 6.74715 1.8335 6.74715C1.56016 6.74715 1.3335 6.52049 1.3335 6.24715C1.3335 3.81382 2.7335 2.41382 5.16683 2.41382H11.8335C14.2668 2.41382 15.6668 3.81382 15.6668 6.24715V10.9138C15.6668 13.3472 14.2668 14.7472 11.8335 14.7472Z" fill="#869099"/>
<path id="Vector_2" d="M8.49969 9.16054C7.93969 9.16054 7.37302 8.98721 6.93969 8.63388L4.85302 6.96721C4.63969 6.79388 4.59969 6.48055 4.77302 6.26721C4.94636 6.05388 5.25968 6.01388 5.47302 6.18722L7.55969 7.85388C8.06635 8.26055 8.92635 8.26055 9.43302 7.85388L11.5197 6.18722C11.733 6.01388 12.053 6.04721 12.2197 6.26721C12.393 6.48055 12.3597 6.80055 12.1397 6.96721L10.053 8.63388C9.62635 8.98721 9.05969 9.16054 8.49969 9.16054Z" fill="#869099"/>
<path id="Vector_3" d="M5.8335 12.0806H1.8335C1.56016 12.0806 1.3335 11.8539 1.3335 11.5806C1.3335 11.3072 1.56016 11.0806 1.8335 11.0806H5.8335C6.10683 11.0806 6.3335 11.3072 6.3335 11.5806C6.3335 11.8539 6.10683 12.0806 5.8335 12.0806Z" fill="#869099"/>
<path id="Vector_4" d="M3.8335 9.41382H1.8335C1.56016 9.41382 1.3335 9.18715 1.3335 8.91382C1.3335 8.64048 1.56016 8.41382 1.8335 8.41382H3.8335C4.10683 8.41382 4.3335 8.64048 4.3335 8.91382C4.3335 9.18715 4.10683 9.41382 3.8335 9.41382Z" fill="#869099"/>
</g>
</g>
</svg>
