<svg width="24" height="25" viewBox="0 0 24 25" fill="none" xmlns="http://www.w3.org/2000/svg">
<g id="setting">
<path id="setting_2" fill-rule="evenodd" clip-rule="evenodd" d="M13.697 2.83472H10.303C9.47412 2.83472 8.7667 3.44199 8.66029 4.26326L8.5243 5.31284C8.50849 5.43485 8.43742 5.5428 8.33158 5.60554L7.44037 6.13379C7.3325 6.19773 7.20089 6.20739 7.08484 6.15987L5.98739 5.71053C5.22571 5.39866 4.34394 5.68745 3.92441 6.39485L2.22744 9.25621C1.80024 9.97653 1.9909 10.8965 2.66466 11.3942L3.72372 12.1765C3.82582 12.2519 3.88606 12.3713 3.88606 12.4982V13.1712C3.88606 13.2982 3.82582 13.4176 3.72372 13.493L2.66466 14.2752C1.9909 14.7729 1.80024 15.6929 2.22744 16.4132L3.92441 19.2746C4.34394 19.982 5.22571 20.2708 5.98739 19.9589L7.08484 19.5096C7.20089 19.462 7.3325 19.4717 7.44037 19.5356L8.33158 20.0639C8.43742 20.1266 8.50849 20.2346 8.5243 20.3566L8.66029 21.4062C8.7667 22.2274 9.47412 22.8347 10.303 22.8347H13.697C14.5259 22.8347 15.2333 22.2274 15.3397 21.4062L15.4757 20.3566C15.4915 20.2346 15.5626 20.1266 15.6684 20.0639L16.5596 19.5356C16.6675 19.4717 16.7991 19.462 16.9152 19.5096L18.0126 19.9589C18.7743 20.2708 19.6561 19.982 20.0756 19.2746L21.7726 16.4132C22.1998 15.6929 22.0091 14.7729 21.3353 14.2752L20.2763 13.493C20.1742 13.4176 20.1139 13.2982 20.1139 13.1712V12.4982C20.1139 12.3713 20.1742 12.2519 20.2763 12.1765L21.3353 11.3942C22.0091 10.8965 22.1998 9.97653 21.7726 9.25621L20.0756 6.39485C19.6561 5.68745 18.7743 5.39866 18.0126 5.71053L16.9152 6.15987C16.7991 6.20739 16.6675 6.19773 16.5596 6.13379L15.6684 5.60554C15.5626 5.5428 15.4915 5.43485 15.4757 5.31284L15.3397 4.26326C15.2333 3.44199 14.5259 2.83472 13.697 2.83472ZM10.3272 5.89743C10.2564 6.43971 9.93806 6.91949 9.46404 7.19831L8.2519 7.91128C7.76878 8.19545 7.17933 8.23835 6.65959 8.02718L5.8317 7.69081C5.64881 7.6165 5.43905 7.68673 5.33778 7.85618L4.18681 9.782C4.08092 9.95917 4.12722 10.1878 4.29369 10.3098L5.06934 10.8783C5.52663 11.2135 5.79647 11.7442 5.79647 12.3083V13.3611C5.79647 13.9252 5.52663 14.4559 5.06934 14.7911L4.29369 15.3596C4.12722 15.4816 4.08092 15.7103 4.18681 15.8874L5.33778 17.8132C5.43905 17.9827 5.64881 18.0529 5.8317 17.9786L6.65959 17.6423C7.17933 17.4311 7.76878 17.474 8.2519 17.7582L9.46404 18.4711C9.93806 18.7499 10.2564 19.2297 10.3272 19.772L10.4205 20.4865C10.4465 20.6857 10.6163 20.8347 10.8171 20.8347H13.1829C13.3837 20.8347 13.5535 20.6857 13.5795 20.4865L13.6728 19.772C13.7436 19.2297 14.0619 18.7499 14.536 18.4711L15.7481 17.7582C16.2312 17.474 16.8207 17.4311 17.3404 17.6423L18.1683 17.9786C18.3512 18.0529 18.5609 17.9827 18.6622 17.8132L19.8132 15.8874C19.9191 15.7103 19.8728 15.4816 19.7063 15.3596L18.9307 14.7911C18.4734 14.4559 18.2035 13.9252 18.2035 13.3611V12.3083C18.2035 11.7442 18.4734 11.2135 18.9307 10.8783L19.7063 10.3098C19.8728 10.1878 19.9191 9.95917 19.8132 9.782L18.6622 7.85618C18.5609 7.68673 18.3512 7.6165 18.1683 7.69081L17.3404 8.02718C16.8207 8.23835 16.2312 8.19545 15.7481 7.91128L14.536 7.19831C14.0619 6.91949 13.7436 6.43971 13.6728 5.89743L13.5795 5.18293C13.5535 4.98373 13.3837 4.83472 13.1829 4.83472H10.8171C10.6163 4.83472 10.4465 4.98373 10.4205 5.18293L10.3272 5.89743ZM16 12.8347C16 13.387 15.5523 13.8347 15 13.8347C14.4477 13.8347 14 13.387 14 12.8347C14 11.7301 13.1046 10.8347 12 10.8347C10.8954 10.8347 10 11.7301 10 12.8347C10 13.9393 10.8954 14.8347 12 14.8347C12.5523 14.8347 13 15.2824 13 15.8347C13 16.387 12.5523 16.8347 12 16.8347C9.79086 16.8347 8 15.0439 8 12.8347C8 10.6256 9.79086 8.83472 12 8.83472C14.2091 8.83472 16 10.6256 16 12.8347Z" fill="#1A73E8"/>
</g>
</svg>
