<svg width="24" height="25" viewBox="0 0 24 25" fill="none" xmlns="http://www.w3.org/2000/svg">
<g id="mobile-programming">
<g id="vuesax/outline/mobile-programming">
<g id="mobile-programming_2">
<path id="Vector" opacity="0.4" d="M13.4999 5.91541H10.4799C9.25993 5.91541 8.24993 4.92538 8.22993 3.70538L8.19993 2.17542C8.18993 1.76542 8.51991 1.4154 8.92991 1.4054C8.93991 1.4054 8.93993 1.4054 8.94993 1.4054C9.35993 1.4054 9.68993 1.73538 9.69993 2.13538L9.72993 3.66541C9.73993 4.06541 10.0799 4.4054 10.4799 4.4054H13.4999C13.9199 4.4054 14.2499 4.0654 14.2499 3.6554V2.16541C14.2499 1.75541 14.5899 1.41541 14.9999 1.41541C15.4099 1.41541 15.7499 1.75541 15.7499 2.16541V3.66541C15.7499 4.90541 14.7399 5.91541 13.4999 5.91541Z" fill="white"/>
<path id="Vector_2" opacity="0.4" d="M16.9999 21.9154C16.8099 21.9154 16.6199 21.8454 16.4699 21.6954L14.4699 19.6954C14.1799 19.4054 14.1799 18.9253 14.4699 18.6353L16.4699 16.6353C16.7599 16.3453 17.2399 16.3453 17.5299 16.6353C17.8199 16.9253 17.8199 17.4054 17.5299 17.6954L16.0599 19.1654L17.5299 20.6353C17.8199 20.9253 17.8199 21.4054 17.5299 21.6954C17.3799 21.8454 17.1899 21.9154 16.9999 21.9154Z" fill="white"/>
<path id="Vector_3" opacity="0.4" d="M19.9999 21.9154C19.8099 21.9154 19.6199 21.8454 19.4699 21.6954C19.1799 21.4054 19.1799 20.9253 19.4699 20.6353L20.9399 19.1654L19.4699 17.6954C19.1799 17.4054 19.1799 16.9253 19.4699 16.6353C19.7599 16.3453 20.2399 16.3453 20.5299 16.6353L22.5299 18.6353C22.8199 18.9253 22.8199 19.4054 22.5299 19.6954L20.5299 21.6954C20.3799 21.8454 20.1899 21.9154 19.9999 21.9154Z" fill="white"/>
<path id="Vector_4" d="M13 22.9154H8C4.35 22.9154 2.25 20.8154 2.25 17.1654V7.16541C2.25 3.51541 4.35 1.41541 8 1.41541H16C19.65 1.41541 21.75 3.51541 21.75 7.16541V14.1654C21.75 14.5754 21.41 14.9154 21 14.9154C20.59 14.9154 20.25 14.5754 20.25 14.1654V7.16541C20.25 4.30541 18.86 2.91541 16 2.91541H8C5.14 2.91541 3.75 4.30541 3.75 7.16541V17.1654C3.75 20.0254 5.14 21.4154 8 21.4154H13C13.41 21.4154 13.75 21.7554 13.75 22.1654C13.75 22.5754 13.41 22.9154 13 22.9154Z" fill="white"/>
</g>
</g>
</g>
</svg>
