<svg width="20" height="22" viewBox="0 0 20 22" fill="none" xmlns="http://www.w3.org/2000/svg">
<g id="Setting">
<path id="Path_33946" fill-rule="evenodd" clip-rule="evenodd" d="M18.8064 6.78897L18.184 5.70888C17.6574 4.79496 16.4905 4.47968 15.5753 5.00408V5.00408C15.1397 5.2607 14.6198 5.33351 14.1305 5.20645C13.6411 5.07938 13.2224 4.76288 12.9666 4.32673C12.8021 4.04951 12.7137 3.73375 12.7103 3.4114V3.4114C12.7251 2.89458 12.5302 2.39376 12.1698 2.02303C11.8094 1.6523 11.3143 1.44322 10.7973 1.44344H9.54326C9.03672 1.44343 8.55107 1.64527 8.19376 2.0043C7.83644 2.36334 7.63693 2.84995 7.63937 3.35648V3.35648C7.62435 4.40228 6.77224 5.24217 5.72632 5.24206C5.40397 5.23872 5.08821 5.1503 4.81099 4.98577V4.98577C3.89582 4.46137 2.72887 4.77665 2.20229 5.69058L1.5341 6.78897C1.00817 7.70175 1.31916 8.86797 2.22975 9.39767V9.39767C2.82166 9.7394 3.18629 10.371 3.18629 11.0544C3.18629 11.7379 2.82166 12.3694 2.22975 12.7112V12.7112C1.32031 13.2373 1.00898 14.4007 1.5341 15.3107V15.3107L2.16568 16.4C2.4124 16.8451 2.82636 17.1737 3.31595 17.3128C3.80554 17.4519 4.3304 17.3903 4.77438 17.1414V17.1414C5.21084 16.8867 5.73094 16.8169 6.2191 16.9476C6.70725 17.0782 7.12299 17.3984 7.37392 17.837C7.53845 18.1143 7.62686 18.43 7.63021 18.7524V18.7524C7.63021 19.8089 8.48671 20.6654 9.54326 20.6654H10.7973C11.8502 20.6654 12.7053 19.8145 12.7103 18.7615V18.7615C12.7079 18.2534 12.9086 17.7654 13.2679 17.4061C13.6272 17.0468 14.1152 16.846 14.6233 16.8485C14.9449 16.8571 15.2594 16.9451 15.5387 17.1048V17.1048C16.4515 17.6307 17.6177 17.3197 18.1474 16.4091V16.4091L18.8064 15.3107C19.0615 14.8729 19.1315 14.3514 19.001 13.8617C18.8704 13.3721 18.55 12.9547 18.1108 12.702V12.702C17.6715 12.4493 17.3511 12.0319 17.2206 11.5423C17.09 11.0527 17.16 10.5312 17.4151 10.0933C17.581 9.8037 17.8211 9.56356 18.1108 9.39767V9.39767C19.0159 8.86825 19.3262 7.70885 18.8064 6.79813V6.79813V6.78897Z" stroke="white" stroke-width="1.5" stroke-linecap="round" stroke-linejoin="round"/>
<circle id="Ellipse_737" opacity="0.4" cx="10.1747" cy="11.0544" r="2.63616" stroke="white" stroke-width="1.5" stroke-linecap="round" stroke-linejoin="round"/>
</g>
</svg>
