<svg width="24" height="25" viewBox="0 0 24 25" fill="none" xmlns="http://www.w3.org/2000/svg">
<g id="vuesax/outline/book">
<g id="book">
<path id="Vector" d="M12 22.2454C11.7 22.2454 11.4 22.1754 11.15 22.0354C9.28 21.0154 5.99 19.9354 3.93 19.6654L3.64 19.6254C2.33 19.4654 1.25 18.2354 1.25 16.9054V4.82541C1.25 4.03541 1.56 3.31541 2.13 2.79541C2.7 2.27541 3.44 2.02541 4.22 2.09541C6.42 2.26541 9.74 3.36541 11.62 4.54541L11.86 4.68541C11.93 4.72541 12.08 4.72541 12.14 4.69541L12.3 4.59541C14.18 3.41541 17.5 2.29541 19.71 2.10541C19.73 2.10541 19.81 2.10541 19.83 2.10541C20.56 2.03541 21.31 2.29541 21.87 2.81541C22.44 3.33541 22.75 4.05541 22.75 4.84541V16.9154C22.75 18.2554 21.67 19.4754 20.35 19.6354L20.02 19.6754C17.96 19.9454 14.66 21.0354 12.83 22.0454C12.59 22.1854 12.3 22.2454 12 22.2454ZM3.98 3.58541C3.66 3.58541 3.37 3.69541 3.14 3.90541C2.89 4.13541 2.75 4.4654 2.75 4.82541V16.9054C2.75 17.4954 3.26 18.0654 3.83 18.1454L4.13 18.1854C6.38 18.4854 9.83 19.6154 11.83 20.7054C11.92 20.7454 12.05 20.7554 12.1 20.7354C14.1 19.6254 17.57 18.4854 19.83 18.1854L20.17 18.1454C20.74 18.0754 21.25 17.4954 21.25 16.9054V4.83541C21.25 4.46541 21.11 4.14541 20.86 3.90541C20.6 3.67541 20.27 3.56541 19.9 3.58541C19.88 3.58541 19.8 3.58541 19.78 3.58541C17.87 3.75541 14.79 4.78541 13.11 5.83541L12.95 5.94541C12.4 6.28541 11.62 6.28541 11.09 5.95541L10.85 5.81541C9.14 4.76541 6.06 3.74541 4.1 3.58541C4.06 3.58541 4.02 3.58541 3.98 3.58541Z" fill="white"/>
<path id="Vector_2" d="M12 21.4054C11.59 21.4054 11.25 21.0654 11.25 20.6554V5.65541C11.25 5.24541 11.59 4.90541 12 4.90541C12.41 4.90541 12.75 5.24541 12.75 5.65541V20.6554C12.75 21.0754 12.41 21.4054 12 21.4054Z" fill="white"/>
<path id="Vector_3" opacity="0.4" d="M7.75 9.40541H5.5C5.09 9.40541 4.75 9.06541 4.75 8.65541C4.75 8.24541 5.09 7.90541 5.5 7.90541H7.75C8.16 7.90541 8.5 8.24541 8.5 8.65541C8.5 9.06541 8.16 9.40541 7.75 9.40541Z" fill="white"/>
<path id="Vector_4" opacity="0.4" d="M16.25 10.9054H18.5C18.91 10.9054 19.25 11.2454 19.25 11.6554C19.25 12.0654 18.91 12.4054 18.5 12.4054H16.25C15.84 12.4054 15.5 12.0654 15.5 11.6554C15.5 11.2454 15.84 10.9054 16.25 10.9054Z" fill="white"/>
<path id="Vector_5" opacity="0.4" d="M8.5 12.4054H5.5C5.09 12.4054 4.75 12.0654 4.75 11.6554C4.75 11.2454 5.09 10.9054 5.5 10.9054H8.5C8.91 10.9054 9.25 11.2454 9.25 11.6554C9.25 12.0654 8.91 12.4054 8.5 12.4054Z" fill="white"/>
<path id="Vector_6" opacity="0.4" d="M15.5 7.9054H18.5C18.91 7.9054 19.25 8.2454 19.25 8.6554C19.25 9.0654 18.91 9.4054 18.5 9.4054H15.5C15.09 9.4054 14.75 9.0654 14.75 8.6554C14.75 8.2454 15.09 7.9054 15.5 7.9054Z" fill="white"/>
</g>
</g>
</svg>
