<svg width="24" height="25" viewBox="0 0 24 25" fill="none" xmlns="http://www.w3.org/2000/svg">
<g id="24 / notifications / bell">
<path id="icon" fill-rule="evenodd" clip-rule="evenodd" d="M2 16.7184V20.152H22V16.7184L21.712 16.4243C21.6817 16.3934 21.5757 16.2949 21.437 16.1661C21.1363 15.8868 20.6823 15.4651 20.5154 15.2815C19.5317 14.1996 19 12.7116 19 10.0689C19 5.13735 15.7412 2.02625 12 2.02625C8.25213 2.02625 5 5.12496 5 10.0689C5 12.7209 4.46898 14.207 3.48596 15.2839C3.3216 15.464 2.8763 15.8764 2.57466 16.1558C2.43195 16.288 2.32139 16.3904 2.28796 16.4243L2 16.7184ZM19.0402 16.6413C19.2506 16.8727 19.7016 17.2958 20 17.5722V18.1382H4V17.5726C4.29607 17.2995 4.74843 16.8768 4.95849 16.6466C6.29422 15.1833 7 13.2082 7 10.0689C7 6.26275 9.33277 4.04003 12 4.04003C14.6597 4.04003 17 6.27422 17 10.0689C17 13.1981 17.706 15.1738 19.0402 16.6413Z" fill="white"/>
<path id="Path" opacity="0.4" fill-rule="evenodd" clip-rule="evenodd" d="M14 19.1309H16C16 20.5339 15.3126 21.8245 14.0878 22.5771C12.8059 23.3648 11.1941 23.3648 9.9122 22.5771C8.56932 21.752 8 20.8021 8 19.1309H10C10 20.0747 10.1871 20.3869 10.954 20.8581C11.5963 21.2527 12.4037 21.2527 13.046 20.8581C13.6628 20.4791 14 19.846 14 19.1309Z" fill="#D9D9D9"/>
<path id="Path_2" opacity="0.4" fill-rule="evenodd" clip-rule="evenodd" d="M10.0376 3.41045C9.90885 2.75081 10.112 2.04366 10.6305 1.55306C11.4003 0.824841 12.5997 0.824841 13.3695 1.55306C13.8887 2.04421 14.0916 2.75239 13.962 3.41267C13.2936 3.15482 12.6176 3.03314 12 3.03314C11.3823 3.03314 10.7062 3.15382 10.0376 3.41045Z" fill="#D9D9D9"/>
</g>
</svg>
