<svg width="22" height="18" viewBox="0 0 22 18" fill="none" xmlns="http://www.w3.org/2000/svg">
<g id="3 User">
<path id="Stroke 1" opacity="0.4" d="M16.8877 7.8967C18.2827 7.7007 19.3567 6.5047 19.3597 5.0557C19.3597 3.6277 18.3187 2.4437 16.9537 2.2197" stroke="white" stroke-width="1.5" stroke-linecap="round" stroke-linejoin="round"/>
<path id="Stroke 3" d="M18.7285 11.2503C20.0795 11.4523 21.0225 11.9253 21.0225 12.9003C21.0225 13.5713 20.5785 14.0073 19.8605 14.2813" stroke="white" stroke-width="1.5" stroke-linecap="round" stroke-linejoin="round"/>
<path id="Stroke 5" fill-rule="evenodd" clip-rule="evenodd" d="M10.8867 11.6638C7.67273 11.6638 4.92773 12.1508 4.92773 14.0958C4.92773 16.0398 7.65573 16.5408 10.8867 16.5408C14.1007 16.5408 16.8447 16.0588 16.8447 14.1128C16.8447 12.1668 14.1177 11.6638 10.8867 11.6638Z" stroke="white" stroke-width="1.5" stroke-linecap="round" stroke-linejoin="round"/>
<path id="Stroke 7" opacity="0.4" fill-rule="evenodd" clip-rule="evenodd" d="M10.8869 8.88789C12.9959 8.88789 14.7059 7.17889 14.7059 5.06889C14.7059 2.95989 12.9959 1.24989 10.8869 1.24989C8.7779 1.24989 7.0679 2.95989 7.0679 5.06889C7.0599 7.17089 8.7569 8.88089 10.8589 8.88789H10.8869Z" stroke="white" stroke-width="1.5" stroke-linecap="round" stroke-linejoin="round"/>
<path id="Stroke 9" opacity="0.4" d="M4.88509 7.8967C3.48909 7.7007 2.41609 6.5047 2.41309 5.0557C2.41309 3.6277 3.45409 2.4437 4.81909 2.2197" stroke="white" stroke-width="1.5" stroke-linecap="round" stroke-linejoin="round"/>
<path id="Stroke 11" d="M3.044 11.2503C1.693 11.4523 0.75 11.9253 0.75 12.9003C0.75 13.5713 1.194 14.0073 1.912 14.2813" stroke="white" stroke-width="1.5" stroke-linecap="round" stroke-linejoin="round"/>
</g>
</svg>
