<svg width="26" height="27" viewBox="0 0 26 27" fill="none" xmlns="http://www.w3.org/2000/svg">
<g id="vuesax/outline/star">
<g id="star">
<path id="Vector" d="M17.8278 22.5999C17.376 22.5999 16.7963 22.455 16.0718 22.0288L13.5229 20.5199C13.2586 20.3665 12.7472 20.3665 12.4914 20.5199L9.93405 22.0288C8.4252 22.9238 7.53864 22.5658 7.13798 22.276C6.74585 21.9861 6.13208 21.2445 6.53274 19.5396L7.13798 16.9225C7.20618 16.6497 7.06979 16.1809 6.8652 15.9763L4.7511 13.8622C3.69405 12.8051 3.7793 11.9015 3.92421 11.4583C4.06913 11.015 4.52946 10.2307 5.99569 9.98351L8.71503 9.53171C8.97077 9.48908 9.33733 9.2163 9.44815 8.98613L10.957 5.97695C11.639 4.60449 12.534 4.3999 13.0029 4.3999C13.4718 4.3999 14.3668 4.60449 15.0488 5.97695L16.5491 8.97761C16.6685 9.20777 17.035 9.48056 17.2908 9.52318L20.0101 9.97498C21.4849 10.2222 21.9452 11.0065 22.0816 11.4497C22.218 11.893 22.3032 12.7966 21.2547 13.8537L19.1406 15.9763C18.936 16.1809 18.8081 16.6412 18.8678 16.9225L19.4731 19.5396C19.8652 21.2445 19.2599 21.9861 18.8678 22.276C18.6547 22.4294 18.3137 22.5999 17.8278 22.5999ZM13.0029 19.1219C13.4206 19.1219 13.8383 19.2242 14.1708 19.4202L16.7196 20.9291C17.4613 21.3724 17.9301 21.3724 18.1091 21.2445C18.2881 21.1166 18.416 20.6648 18.2285 19.8294L17.6232 17.2124C17.4613 16.5048 17.7255 15.5927 18.237 15.0727L20.3511 12.9586C20.7688 12.5409 20.9563 12.1317 20.8711 11.8504C20.7773 11.5691 20.3852 11.3389 19.8055 11.2451L17.0862 10.7933C16.4298 10.6825 15.7137 10.154 15.4154 9.55728L13.915 6.55662C13.6422 6.01105 13.3013 5.68712 13.0029 5.68712C12.7045 5.68712 12.3636 6.01105 12.0993 6.55662L10.5904 9.55728C10.2921 10.154 9.57602 10.6825 8.91962 10.7933L6.2088 11.2451C5.62913 11.3389 5.237 11.5691 5.14323 11.8504C5.04946 12.1317 5.24552 12.5494 5.66323 12.9586L7.77733 15.0727C8.2888 15.5842 8.55307 16.5048 8.3911 17.2124L7.78585 19.8294C7.58979 20.6733 7.72618 21.1166 7.9052 21.2445C8.08421 21.3724 8.54454 21.3638 9.2947 20.9291L11.8436 19.4202C12.1675 19.2242 12.5852 19.1219 13.0029 19.1219Z" fill="#343A40"/>
</g>
</g>
</svg>
