<svg width="71" height="70" viewBox="0 0 71 70" fill="none" xmlns="http://www.w3.org/2000/svg">
<g id="vuesax/outline/task-square" opacity="0.3">
<path id="Vector" opacity="0.4" d="M49.3783 20.4969H31.0252C29.5919 20.4969 28.4033 19.9675 28.4033 19.329C28.4033 18.6906 29.5919 18.1611 31.0252 18.1611H49.3783C50.8116 18.1611 52.0002 18.6906 52.0002 19.329C52.0002 19.9675 50.8466 20.4969 49.3783 20.4969Z" fill="white"/>
<path id="Vector_2" opacity="0.4" d="M49.3783 41.9162H31.0252C29.5919 41.9162 28.4033 41.3868 28.4033 40.7483C28.4033 40.1099 29.5919 39.5804 31.0252 39.5804H49.3783C50.8116 39.5804 52.0002 40.1099 52.0002 40.7483C52.0002 41.3868 50.8466 41.9162 49.3783 41.9162Z" fill="white"/>
<path id="Vector_3" opacity="0.4" d="M21.3961 21.6804C21.1002 21.6804 20.8044 21.5714 20.5708 21.3378L19.4029 20.1699C18.9513 19.7183 18.9513 18.9709 19.4029 18.5193C19.8545 18.0677 20.6019 18.0677 21.0535 18.5193L21.3961 18.8619L24.0744 16.1835C24.526 15.732 25.2735 15.732 25.725 16.1835C26.1766 16.6351 26.1766 17.3826 25.725 17.8341L22.2214 21.3378C22.0034 21.5558 21.7075 21.6804 21.3961 21.6804Z" fill="white"/>
<path id="Vector_4" opacity="0.4" d="M21.3961 43.0997C21.1002 43.0997 20.8044 42.9907 20.5708 42.7571L19.4029 41.5892C18.9513 41.1376 18.9513 40.3902 19.4029 39.9386C19.8545 39.487 20.6019 39.487 21.0535 39.9386L21.3961 40.2812L24.0744 37.6028C24.526 37.1513 25.2735 37.1513 25.725 37.6028C26.1766 38.0544 26.1766 38.8019 25.725 39.2535L22.2214 42.7571C22.0034 42.9751 21.7075 43.0997 21.3961 43.0997Z" fill="white"/>
<path id="Vector_5" opacity="0.4" d="M49.3783 31.3972H31.0252C29.5919 31.3972 28.4033 30.8677 28.4033 30.2293C28.4033 29.5908 29.5919 29.0614 31.0252 29.0614H49.3783C50.8116 29.0614 52.0002 29.5908 52.0002 30.2293C52.0002 30.8677 50.8466 31.3972 49.3783 31.3972Z" fill="white"/>
<path id="Vector_6" opacity="0.4" d="M49.3783 52.8165H31.0252C29.5919 52.8165 28.4033 52.287 28.4033 51.6486C28.4033 51.0102 29.5919 50.4807 31.0252 50.4807H49.3783C50.8116 50.4807 52.0002 51.0102 52.0002 51.6486C52.0002 52.287 50.8466 52.8165 49.3783 52.8165Z" fill="white"/>
<path id="Vector_7" opacity="0.4" d="M21.3961 32.5806C21.1002 32.5806 20.8044 32.4716 20.5708 32.2381L19.4029 31.0702C18.9513 30.6186 18.9513 29.8711 19.4029 29.4196C19.8545 28.968 20.6019 28.968 21.0535 29.4196L21.3961 29.7621L24.0744 27.0838C24.526 26.6322 25.2735 26.6322 25.725 27.0838C26.1766 27.5354 26.1766 28.2828 25.725 28.7344L22.2214 32.2381C22.0034 32.4561 21.7075 32.5806 21.3961 32.5806Z" fill="white"/>
<path id="Vector_8" opacity="0.4" d="M21.3961 53.9999C21.1002 53.9999 20.8044 53.8909 20.5708 53.6574L19.4029 52.4895C18.9513 52.0379 18.9513 51.2905 19.4029 50.8389C19.8545 50.3873 20.6019 50.3873 21.0535 50.8389L21.3961 51.1815L24.0744 48.5031C24.526 48.0515 25.2735 48.0515 25.725 48.5031C26.1766 48.9547 26.1766 49.7021 25.725 50.1537L22.2214 53.6574C22.0034 53.8754 21.7075 53.9999 21.3961 53.9999Z" fill="white"/>
<path id="Stroke 4" fill-rule="evenodd" clip-rule="evenodd" d="M46.6579 8.1521C46.6579 8.1521 24.2666 8.16377 24.2316 8.16377C16.1816 8.21335 11.197 13.51 11.197 21.5892V48.4109C11.197 56.5309 16.2195 61.8479 24.3395 61.8479C24.3395 61.8479 46.7279 61.8392 46.7658 61.8392C54.8158 61.7896 59.8033 56.49 59.8033 48.4109V21.5892C59.8033 13.4692 54.7779 8.1521 46.6579 8.1521Z" stroke="white" stroke-width="1.5" stroke-linecap="round" stroke-linejoin="round"/>
</g>
</svg>
