<svg width="71" height="70" viewBox="0 0 71 70" fill="none" xmlns="http://www.w3.org/2000/svg">
<g opacity="0.3">
<path fill-rule="evenodd" clip-rule="evenodd" d="M46.8244 8.1521C46.8244 8.1521 24.4331 8.16377 24.3981 8.16377C16.3481 8.21335 11.3635 13.51 11.3635 21.5892V48.4109C11.3635 56.5309 16.386 61.8479 24.506 61.8479C24.506 61.8479 46.8944 61.8392 46.9323 61.8392C54.9823 61.7896 59.9698 56.49 59.9698 48.4109V21.5892C59.9698 13.4692 54.9444 8.1521 46.8244 8.1521Z" stroke="white" stroke-width="1.5" stroke-linecap="round" stroke-linejoin="round"/>
<g opacity="0.4">
<path fill-rule="evenodd" clip-rule="evenodd" d="M21.6697 22.9687L20.1592 24.4896L22.2075 26.552L23.7179 25.0311L24.4523 25.7706C22.4092 28.2846 21.1833 31.4981 21.1833 35C21.1833 43.0541 27.6678 49.5833 35.6669 49.5833C39.1447 49.5833 42.3363 48.349 44.8331 46.2918L49.1263 50.6145L51.1745 48.5521L22.2075 19.3855L20.1592 21.4479L21.6697 22.9687ZM42.772 44.2165L26.5135 27.8459C24.9883 29.8215 24.08 32.304 24.08 35C24.08 41.4433 29.2676 46.6667 35.6669 46.6667C38.3444 46.6667 40.8099 45.7522 42.772 44.2165ZM47.2537 35C47.2537 36.6278 46.9226 38.1778 46.3245 39.5853L48.497 41.7728C49.5529 39.749 50.1504 37.4448 50.1504 35C50.1504 26.9458 43.6659 20.4167 35.6669 20.4167C33.2388 20.4167 30.9503 21.0182 28.9404 22.0814L31.1129 24.2689C32.5108 23.6667 34.0502 23.3333 35.6669 23.3333C42.0661 23.3333 47.2537 28.5567 47.2537 35ZM44.057 21.4479L46.1053 19.3855L51.1745 24.4896L49.1263 26.552L44.057 21.4479Z" fill="white"/>
</g>
</g>
</svg>
