<svg width="70" height="70" viewBox="0 0 70 70" fill="none" xmlns="http://www.w3.org/2000/svg">
<g id="Outlined/Increase" opacity="0.4">
<g id="Union">
<path d="M51.9697 8.8153C53.1418 8.52228 54.3294 9.23488 54.6224 10.4069L56.81 19.1569C57.103 20.329 56.3904 21.5167 55.2183 21.8097C54.0463 22.1027 52.8586 21.3901 52.5656 20.218L51.7599 16.9955C51.1744 17.992 50.4446 19.1799 49.6015 20.4424C47.3671 23.7882 44.1538 27.9415 40.567 30.2718C36.4534 32.9444 30.5368 34.0739 25.9371 34.5792C23.5849 34.8376 21.4731 34.9425 19.949 34.983C19.1859 35.0033 18.5671 35.0075 18.1359 35.0066C17.9202 35.0061 17.7512 35.0044 17.6342 35.0027L17.4984 35.0004L17.461 34.9996L17.4501 34.9994L17.4466 34.9993L17.5003 32.8124C17.4445 34.9992 17.4466 34.9993 17.4466 34.9993C16.2389 34.9685 15.2827 33.9644 15.3135 32.7567C15.3442 31.549 16.3481 30.595 17.5558 30.6256L17.5607 30.6257L17.5862 30.6263L17.6971 30.6282C17.7972 30.6296 17.9483 30.6312 18.1452 30.6316C18.5393 30.6325 19.1159 30.6286 19.8328 30.6096C21.2688 30.5714 23.2559 30.4724 25.4593 30.2304C29.9707 29.7348 34.9917 28.6768 38.1835 26.6031C40.9739 24.7902 43.7763 21.2873 45.9632 18.0126C46.9095 16.5957 47.7062 15.2745 48.2999 14.2424L44.2808 15.2472C43.1087 15.5402 41.9211 14.8276 41.6281 13.6555C41.335 12.4835 42.0476 11.2958 43.2197 11.0028L51.9697 8.8153Z" fill="#C2C7D0"/>
<path d="M48.1252 37.1875C48.1252 35.9794 49.1046 35 50.3127 35H54.6877C55.8959 35 56.8752 35.9794 56.8752 37.1875V56.875C56.8752 58.0831 55.8959 59.0625 54.6877 59.0625H50.3127C49.1046 59.0625 48.1252 58.0831 48.1252 56.875V37.1875Z" fill="#C2C7D0"/>
<path d="M32.8127 41.5625C31.6046 41.5625 30.6252 42.5419 30.6252 43.75V56.875C30.6252 58.0831 31.6046 59.0625 32.8127 59.0625H37.1877C38.3959 59.0625 39.3752 58.0831 39.3752 56.875V43.75C39.3752 42.5419 38.3959 41.5625 37.1877 41.5625H32.8127Z" fill="#C2C7D0"/>
<path d="M15.3127 45.9375C14.1046 45.9375 13.1252 46.9169 13.1252 48.125V56.875C13.1252 58.0831 14.1046 59.0625 15.3127 59.0625H19.6877C20.8959 59.0625 21.8752 58.0831 21.8752 56.875V48.125C21.8752 46.9169 20.8959 45.9375 19.6877 45.9375H15.3127Z" fill="#C2C7D0"/>
</g>
</g>
</svg>
