<svg width="71" height="70" viewBox="0 0 71 70" fill="none" xmlns="http://www.w3.org/2000/svg">
<g id="vuesax/outline/android" opacity="0.3">
<g id="android">
<path id="Vector" d="M30.0002 66.3542C27.2002 66.3542 24.896 64.05 24.896 61.25V52.5C24.896 51.3042 25.8877 50.3125 27.0835 50.3125H32.9168C34.1127 50.3125 35.1043 51.3042 35.1043 52.5V61.25C35.1043 64.05 32.8002 66.3542 30.0002 66.3542ZM29.271 54.6875V61.25C29.271 62.0375 30.7293 62.0375 30.7293 61.25V54.6875H29.271Z" fill="white"/>
<path id="Vector_2" d="M41.6669 66.3542C38.8669 66.3542 36.5627 64.05 36.5627 61.25V52.5C36.5627 51.3042 37.5544 50.3125 38.7502 50.3125H44.5836C45.7794 50.3125 46.7711 51.3042 46.7711 52.5V61.25C46.7711 64.05 44.4669 66.3542 41.6669 66.3542ZM40.9377 54.6875V61.25C40.9377 62.0375 42.3961 62.0375 42.3961 61.25V54.6875H40.9377Z" fill="white"/>
<path id="Vector_3" d="M44.5836 54.6875H27.0836C22.6502 54.6875 19.0627 51.1 19.0627 46.6667V32.0833C19.0627 27.65 22.6502 24.0625 27.0836 24.0625H44.5836C49.0169 24.0625 52.6044 27.65 52.6044 32.0833V46.6667C52.6044 51.1 49.0169 54.6875 44.5836 54.6875ZM27.0836 28.4375C25.0711 28.4375 23.4377 30.0708 23.4377 32.0833V46.6667C23.4377 48.6792 25.0711 50.3125 27.0836 50.3125H44.5836C46.5961 50.3125 48.2294 48.6792 48.2294 46.6667V32.0833C48.2294 30.0708 46.5961 28.4375 44.5836 28.4375H27.0836Z" fill="white"/>
<path id="Vector_4" d="M12.5002 48.8542C9.70016 48.8542 7.396 46.55 7.396 43.75V32.0833C7.396 29.2833 9.70016 26.9792 12.5002 26.9792C15.3002 26.9792 17.6043 29.2833 17.6043 32.0833V43.75C17.6043 46.55 15.3002 48.8542 12.5002 48.8542ZM12.5002 31.3542C12.0918 31.3542 11.771 31.675 11.771 32.0833V43.75C11.771 44.5667 13.2293 44.5667 13.2293 43.75V32.0833C13.2293 31.675 12.9085 31.3542 12.5002 31.3542Z" fill="white"/>
<path id="Vector_5" d="M59.1669 48.8542C56.3669 48.8542 54.0627 46.55 54.0627 43.75V32.0833C54.0627 29.2833 56.3669 26.9792 59.1669 26.9792C61.9669 26.9792 64.2711 29.2833 64.2711 32.0833V43.75C64.2711 46.55 61.9669 48.8542 59.1669 48.8542ZM59.1669 31.3542C58.7586 31.3542 58.4377 31.675 58.4377 32.0833V43.75C58.4377 44.5667 59.8961 44.5667 59.8961 43.75V32.0833C59.8961 31.675 59.5752 31.3542 59.1669 31.3542Z" fill="white"/>
<path id="Vector_6" d="M38.7501 54.6875H32.9167C31.7209 54.6875 30.7292 53.6958 30.7292 52.5C30.7292 51.3042 31.7209 50.3125 32.9167 50.3125H38.7501C39.9459 50.3125 40.9376 51.3042 40.9376 52.5C40.9376 53.6958 39.9459 54.6875 38.7501 54.6875Z" fill="white"/>
<path id="Vector_7" d="M42.8335 22.6043H28.8333C25.0417 22.6043 21.9792 19.5417 21.9792 15.7501C21.9792 8.10841 28.1917 1.8959 35.8334 1.8959C43.4751 1.8959 49.6876 8.10841 49.6876 15.7501C49.6876 19.5417 46.6252 22.6043 42.8335 22.6043ZM35.8334 6.2709C30.6126 6.2709 26.3542 10.5292 26.3542 15.7501C26.3542 17.1209 27.4625 18.2293 28.8333 18.2293H42.8335C44.2043 18.2293 45.3126 17.1209 45.3126 15.7501C45.3126 10.5292 41.0542 6.2709 35.8334 6.2709Z" fill="white"/>
</g>
</g>
</svg>
