<svg width="23" height="23" viewBox="0 0 23 23" fill="none" xmlns="http://www.w3.org/2000/svg">
<g id="Chat">
<path id="Stroke 4" fill-rule="evenodd" clip-rule="evenodd" d="M18.5714 18.7388C15.5152 21.7953 10.9898 22.4556 7.28642 20.743C6.73971 20.5228 6.29148 20.3449 5.86537 20.3449C4.67849 20.352 3.20117 21.5028 2.43336 20.7359C1.66555 19.968 2.81726 18.4895 2.81726 17.2955C2.81726 16.8693 2.64642 16.4291 2.42632 15.8813C0.712831 12.1786 1.37411 7.65163 4.43026 4.59615C8.3316 0.693377 14.67 0.693377 18.5714 4.59515C22.4797 8.50395 22.4727 14.837 18.5714 18.7388Z" stroke="#343A40" stroke-width="1.5" stroke-linecap="round" stroke-linejoin="round"/>
<path id="Stroke 11" opacity="0.4" d="M15.4393 12.0819H15.4483" stroke="#343A40" stroke-width="2" stroke-linecap="round" stroke-linejoin="round"/>
<path id="Stroke 13" opacity="0.4" d="M11.4306 12.0819H11.4396" stroke="#343A40" stroke-width="2" stroke-linecap="round" stroke-linejoin="round"/>
<path id="Stroke 15" opacity="0.4" d="M7.42128 12.0819H7.43028" stroke="#343A40" stroke-width="2" stroke-linecap="round" stroke-linejoin="round"/>
</g>
</svg>
