<svg width="71" height="71" viewBox="0 0 71 71" fill="none" xmlns="http://www.w3.org/2000/svg">
<g id="Outlined/Increase" opacity="0.4">
<g id="vuesax/outline/chart-square">
<g id="chart-square">
<path id="Vector" d="M30.7745 50.9557H21.2996C20.2746 50.9557 19.4246 50.1057 19.4246 49.0807V36.2807C19.4246 33.6807 21.5495 31.5557 24.1495 31.5557H30.7745C31.7995 31.5557 32.6495 32.4057 32.6495 33.4307V49.0557C32.6495 50.1057 31.7995 50.9557 30.7745 50.9557ZM23.1746 47.2057H28.8995V35.3307H24.1495C23.6245 35.3307 23.1746 35.7556 23.1746 36.3056V47.2057Z" fill="#E7E9EC"/>
<path id="Vector_2" d="M40.2253 50.9557H30.7502C29.7252 50.9557 28.8752 50.1057 28.8752 49.0807V24.9306C28.8752 22.3306 31.0002 20.2056 33.6002 20.2056H37.4003C40.0003 20.2056 42.1252 22.3306 42.1252 24.9306V49.0807C42.1002 50.1057 41.2753 50.9557 40.2253 50.9557ZM32.6502 47.2057H38.3752V24.9306C38.3752 24.4056 37.9503 23.9556 37.4003 23.9556H33.6002C33.0752 23.9556 32.6252 24.3806 32.6252 24.9306V47.2057H32.6502Z" fill="#E7E9EC"/>
<path id="Vector_3" d="M49.7003 50.9557H40.2253C39.2003 50.9557 38.3503 50.1057 38.3503 49.0807V37.7056C38.3503 36.6806 39.2003 35.8306 40.2253 35.8306H46.8503C49.4503 35.8306 51.5753 37.9556 51.5753 40.5556V49.0807C51.5753 50.1057 50.7503 50.9557 49.7003 50.9557ZM42.1003 47.2057H47.8253V40.5556C47.8253 40.0306 47.4003 39.5806 46.8503 39.5806H42.1003V47.2057Z" fill="#E7E9EC"/>
<path id="Vector_4" d="M43 62.4556H28C14.425 62.4556 8.625 56.6556 8.625 43.0806V28.0806C8.625 14.5056 14.425 8.70557 28 8.70557H43C56.575 8.70557 62.375 14.5056 62.375 28.0806V43.0806C62.375 56.6556 56.575 62.4556 43 62.4556ZM28 12.4556C16.475 12.4556 12.375 16.5556 12.375 28.0806V43.0806C12.375 54.6056 16.475 58.7056 28 58.7056H43C54.525 58.7056 58.625 54.6056 58.625 43.0806V28.0806C58.625 16.5556 54.525 12.4556 43 12.4556H28Z" fill="#E7E9EC"/>
</g>
</g>
</g>
</svg>
