<svg width="71" height="71" viewBox="0 0 71 71" fill="none" xmlns="http://www.w3.org/2000/svg">
<g id="Outlined/Increase" opacity="0.4">
<g id="Union">
<path d="M52.4695 9.39591C53.6415 9.1029 54.8292 9.8155 55.1222 10.9875L57.3097 19.7375C57.6027 20.9096 56.8901 22.0973 55.7181 22.3903C54.546 22.6833 53.3583 21.9707 53.0653 20.7986L52.2597 17.5761C51.6742 18.5726 50.9444 19.7605 50.1012 21.023C47.8668 24.3688 44.6536 28.5221 41.0668 30.8524C36.9531 33.525 31.0366 34.6545 26.4368 35.1598C24.0846 35.4182 21.9728 35.5231 20.4488 35.5636C19.6856 35.5839 19.0669 35.5881 18.6356 35.5872C18.4199 35.5868 18.2509 35.585 18.134 35.5833L17.9981 35.581L17.9607 35.5802L17.9498 35.58L17.9464 35.5799L18 33.393C17.9443 35.5798 17.9464 35.5799 17.9464 35.5799C16.7387 35.5491 15.7824 34.545 15.8132 33.3373C15.844 32.1296 16.8479 31.1756 18.0555 31.2062L18.0605 31.2064L18.0859 31.2069L18.1969 31.2088C18.2969 31.2102 18.448 31.2118 18.645 31.2122C19.039 31.2131 19.6156 31.2092 20.3325 31.1902C21.7686 31.152 23.7557 31.053 25.9591 30.811C30.4705 30.3154 35.4914 29.2574 38.6833 27.1837C41.4737 25.3708 44.2761 21.8679 46.463 18.5932C47.4092 17.1763 48.2059 15.8552 48.7997 14.823L44.7805 15.8278C43.6085 16.1208 42.4208 15.4082 42.1278 14.2361C41.8348 13.0641 42.5474 11.8764 43.7195 11.5834L52.4695 9.39591Z" fill="#C2C7D0"/>
<path d="M48.625 37.7681C48.625 36.56 49.6044 35.5806 50.8125 35.5806H55.1875C56.3956 35.5806 57.375 36.56 57.375 37.7681V57.4556C57.375 58.6637 56.3956 59.6431 55.1875 59.6431H50.8125C49.6044 59.6431 48.625 58.6637 48.625 57.4556V37.7681Z" fill="#C2C7D0"/>
<path d="M33.3125 42.1431C32.1044 42.1431 31.125 43.1225 31.125 44.3306V57.4556C31.125 58.6637 32.1044 59.6431 33.3125 59.6431H37.6875C38.8956 59.6431 39.875 58.6637 39.875 57.4556V44.3306C39.875 43.1225 38.8956 42.1431 37.6875 42.1431H33.3125Z" fill="#C2C7D0"/>
<path d="M15.8125 46.5181C14.6044 46.5181 13.625 47.4975 13.625 48.7056V57.4556C13.625 58.6637 14.6044 59.6431 15.8125 59.6431H20.1875C21.3956 59.6431 22.375 58.6637 22.375 57.4556V48.7056C22.375 47.4975 21.3956 46.5181 20.1875 46.5181H15.8125Z" fill="#C2C7D0"/>
</g>
</g>
</svg>
