<svg width="22" height="21" viewBox="0 0 22 21" fill="none" xmlns="http://www.w3.org/2000/svg">
<g id="vuesax/outline/user-add">
<g id="user-add">
<path id="Vector" d="M11.0002 11.1498C8.25285 11.1498 6.01685 8.91377 6.01685 6.16644C6.01685 3.41911 8.25285 1.18311 11.0002 1.18311C13.7475 1.18311 15.9835 3.41911 15.9835 6.16644C15.9835 8.91377 13.7475 11.1498 11.0002 11.1498ZM11.0002 2.48311C8.97218 2.48311 7.31685 4.13844 7.31685 6.16644C7.31685 8.19444 8.97218 9.84977 11.0002 9.84977C13.0282 9.84977 14.6835 8.19444 14.6835 6.16644C14.6835 4.13844 13.0282 2.48311 11.0002 2.48311Z" fill="white"/>
<path id="Vector_2" d="M3.55552 19.8166C3.20018 19.8166 2.90552 19.522 2.90552 19.1666C2.90552 15.466 6.53685 12.45 11.0002 12.45C11.8755 12.45 12.7335 12.5626 13.5655 12.7966C13.9122 12.892 14.1115 13.2473 14.0162 13.594C13.9209 13.9406 13.5655 14.14 13.2188 14.0446C12.5082 13.8453 11.7628 13.75 11.0002 13.75C7.25618 13.75 4.20552 16.1766 4.20552 19.1666C4.20552 19.522 3.91085 19.8166 3.55552 19.8166Z" fill="white"/>
<path id="Vector_3" d="M16.1999 19.8166C15.1773 19.8166 14.2066 19.4353 13.4526 18.7506C13.1492 18.4906 12.8806 18.1699 12.6726 17.8146C12.2912 17.1906 12.0833 16.4539 12.0833 15.6999C12.0833 14.6166 12.4992 13.6026 13.2446 12.8313C14.0246 12.0253 15.0733 11.5833 16.1999 11.5833C17.3786 11.5833 18.4966 12.0859 19.2593 12.9526C19.9353 13.7066 20.3166 14.6773 20.3166 15.6999C20.3166 16.0293 20.2733 16.3586 20.1866 16.6706C20.0999 17.0606 19.9352 17.4679 19.7099 17.8233C18.9906 19.0539 17.6386 19.8166 16.1999 19.8166ZM16.1999 12.8833C15.4286 12.8833 14.7179 13.1866 14.1806 13.7326C13.6693 14.2612 13.3833 14.9546 13.3833 15.6999C13.3833 16.2113 13.5219 16.7139 13.7906 17.1472C13.9293 17.3899 14.1112 17.6066 14.3192 17.7886C14.8392 18.2652 15.5066 18.5253 16.1999 18.5253C17.1793 18.5253 18.1066 18.0053 18.6093 17.1646C18.7566 16.9219 18.8692 16.6446 18.9299 16.3759C18.9906 16.1506 19.0166 15.9339 19.0166 15.7086C19.0166 15.0153 18.7566 14.3479 18.2886 13.8279C17.7686 13.2213 17.0059 12.8833 16.1999 12.8833Z" fill="white"/>
<path id="Vector_4" d="M17.4999 16.3325H14.9085C14.5532 16.3325 14.2585 16.0378 14.2585 15.6825C14.2585 15.3271 14.5532 15.0325 14.9085 15.0325H17.4999C17.8552 15.0325 18.1499 15.3271 18.1499 15.6825C18.1499 16.0378 17.8552 16.3325 17.4999 16.3325Z" fill="white"/>
<path id="Vector_5" d="M16.2 17.6589C15.8447 17.6589 15.55 17.3642 15.55 17.0089V14.4176C15.55 14.0622 15.8447 13.7676 16.2 13.7676C16.5554 13.7676 16.85 14.0622 16.85 14.4176V17.0089C16.85 17.3729 16.5554 17.6589 16.2 17.6589Z" fill="white"/>
</g>
</g>
</svg>
