<svg width="40" height="42" viewBox="0 0 40 42" fill="none" xmlns="http://www.w3.org/2000/svg">

<path d="M22.2063 9.39965C22.2063 9.39965 30.7998 10.7442 30.1482 22.9895C30.1458 23.0349 31.1418 23.6961 31.2198 23.7668C31.9143 24.3949 32.497 25.1993 32.7518 26.1403C33.6591 29.4912 30.4153 32.9439 27.792 33.8603C26.8122 34.2026 25.7766 34.3688 24.7388 34.399C17.9929 34.5954 9.06173 30.3078 8.60303 21.9344C8.5866 21.634 8.58254 21.3333 8.59027 21.0332C8.63094 19.4433 9.01466 17.8949 9.59298 16.4572C9.59272 16.4572 13.3471 7.14487 22.2063 9.39965Z" fill="#A47539"/>
<g style="mix-blend-mode:multiply" opacity="0.5">
<path d="M30.3651 23.1182C30.2722 23.3462 30.1794 23.6376 30.1535 23.8043C30.0429 24.5191 30.2876 25.2574 30.7125 25.7882C31.1159 26.2922 31.6919 26.6191 32.2496 26.7425C32.4379 26.7842 32.6659 26.8056 32.8653 26.8124C32.6551 24.742 30.9699 23.4994 30.3651 23.1182Z" fill="#FEB3A4"/>
</g>
<g style="mix-blend-mode:multiply" opacity="0.5">
<path d="M18.2531 28.5602C19.8489 28.2172 20.8392 26.5354 20.465 24.8037C20.0908 23.072 18.4938 21.9462 16.8981 22.2892C15.3023 22.6322 14.312 24.3141 14.6862 26.0457C15.0604 27.7774 16.6573 28.9032 18.2531 28.5602Z" fill="#FEB3A4"/>
</g>
<path opacity="0.3" d="M26.0669 23.7169C26.0669 23.7169 27.4301 22.4199 28.4854 23.6394L26.0669 23.7169Z" fill="#633B1D"/>
<path d="M13.3558 30.1814C8.82034 32.4547 4.70111 26.7499 6.01869 23.5441C6.85916 21.4992 9.31188 21.3409 10.7339 23.2093C11.5731 24.3121 12.2523 25.7215 12.6382 27.0697" fill="#A47539"/>
<path opacity="0.3" d="M9.61819 25.0908C10.2021 25.6851 10.6716 26.5664 11.2485 27.0581C11.1416 26.2356 10.9711 25.3572 10.5715 24.6159C10.1658 23.8629 9.42815 23.2426 8.67735 23.2934C7.74689 23.3566 6.98117 24.4406 6.88303 25.4235C6.9417 24.8353 8.1243 24.4375 8.57577 24.4934C9.28319 25.8266 9.55788 28.454 9.55788 28.454C10.1462 26.9668 9.90737 25.7969 9.61819 25.0908Z" fill="#633B1D"/>
<path d="M27.5468 26.857C28.1579 26.8739 28.7438 26.6991 29.2485 26.1744C29.5126 25.9002 29.7803 25.7492 30.1592 25.9838C31.0663 26.5457 31.2799 27.9494 31.036 28.8906C30.7683 29.9234 29.9619 30.756 29.0326 31.299C26.5318 32.7603 24.6136 32.4314 22.0546 31.4973C20.0403 30.7623 17.3171 29.2805 18.0074 26.7304C18.8622 23.573 22.5463 25.0889 24.625 25.9407C25.5076 26.3027 26.56 26.8296 27.5468 26.857Z" fill="white"/>
<mask id="mask0_285_7130" style="mask-type:alpha" maskUnits="userSpaceOnUse" x="17" y="24" width="15" height="9">
<path d="M27.5471 26.8572C28.1582 26.8741 28.7442 26.6993 29.2489 26.1746C29.5129 25.9004 29.7807 25.7494 30.1596 25.984C31.0667 26.5459 31.2802 27.9496 31.0364 28.8908C30.7687 29.9236 29.9623 30.7562 29.0329 31.2992C26.5322 32.7604 24.614 32.4316 22.055 31.4975C20.0407 30.7625 17.3175 29.2807 18.0078 26.7306C18.8626 23.5732 22.5467 25.0891 24.6254 25.9409C25.508 26.3029 26.5603 26.8298 27.5471 26.8572Z" fill="white"/>
</mask>
<g mask="url(#mask0_285_7130)">
<path fill-rule="evenodd" clip-rule="evenodd" d="M19.2039 30.3641L21.8218 23.755L22.1862 23.8995L19.5683 30.5085L19.2039 30.3641ZM24.5831 32.4995L26.3914 25.5646L26.7707 25.6636L24.9624 32.5985L24.5831 32.4995ZM29.965 30.8251L28.9672 25.7408L29.3519 25.6653L30.3496 30.7496L29.965 30.8251Z" fill="#D1D3D4"/>
</g>
<path d="M24.6728 22.2281C23.6261 21.4041 22.3305 21.5826 21.7959 21.7803C21.7919 21.7818 21.7892 21.7763 21.792 21.7731C23.2313 20.112 24.3114 21.3708 24.6794 22.2236C24.6811 22.2275 24.6762 22.2308 24.6728 22.2281Z" fill="#2A1200"/>
<path d="M29.7495 21.6435C29.7485 22.1638 29.5131 22.7224 28.9106 22.6582C28.405 22.6043 28.2759 21.9405 28.2765 21.6136C28.2776 21.042 28.564 20.502 28.9817 20.5012C29.431 20.5003 29.7505 21.1233 29.7495 21.6435Z" fill="#2A1200"/>
<path d="M24.162 17.6187C23.2681 17.4733 22.3102 17.8073 21.6672 18.485C21.4599 18.7035 21.4018 19.091 21.6185 19.3377C21.8186 19.5659 22.1827 19.6357 22.4046 19.4016C22.4711 19.3314 22.5406 19.2648 22.6142 19.2032C22.6371 19.184 22.7007 19.1499 22.7208 19.1215C22.7319 19.1142 22.7428 19.1068 22.7542 19.0997C22.8245 19.0554 22.8967 19.015 22.9706 18.9782C23.013 18.9573 23.0557 18.9378 23.099 18.9193C23.1127 18.9136 23.1264 18.9081 23.1403 18.9026C23.1783 18.896 23.2219 18.8754 23.2566 18.8659C23.3018 18.8536 23.3471 18.8427 23.393 18.8332C23.473 18.8165 23.5539 18.804 23.6351 18.7958C23.6465 18.7946 23.6576 18.7938 23.6691 18.7929C23.7129 18.7931 23.7566 18.7923 23.8005 18.794C23.8939 18.7979 23.9868 18.8083 24.0793 18.8232C24.3682 18.8703 24.6677 18.5859 24.6764 18.2735C24.6854 17.9296 24.4715 17.6691 24.162 17.6187Z" fill="#351700"/>
<path d="M30.1633 18.6456C29.8387 18.1988 29.3617 17.9056 28.8471 17.8205C28.7083 17.7976 28.5461 17.8508 28.4378 17.9435C28.3311 18.0348 28.2415 18.1957 28.2322 18.3459C28.2226 18.5019 28.2534 18.6693 28.3507 18.7919C28.4495 18.9163 28.5733 18.9953 28.7241 19.0204C28.7488 19.0244 28.7728 19.0314 28.7974 19.0368C28.8699 19.0618 28.94 19.0927 29.0084 19.129C29.0862 19.1816 29.1591 19.2415 29.2272 19.3084C29.2494 19.335 29.2729 19.3605 29.2936 19.3888C29.3825 19.511 29.5252 19.5982 29.6669 19.6172C29.8025 19.6355 29.9714 19.5919 30.0762 19.494C30.1848 19.3927 30.2719 19.2522 30.2818 19.0916C30.2918 18.9314 30.2574 18.775 30.1633 18.6456Z" fill="#351700"/>
<path d="M8.56532 21.0496C8.55759 21.3499 8.56164 21.6509 8.57807 21.9516C11.0695 22.3745 12.2494 25.0429 12.528 26.3242C12.528 26.3242 13.2693 26.3678 13.4437 26.2262C14.3594 25.747 15.9881 23.7821 15.177 19.7564C14.7845 17.9266 15.0462 16.4697 18.2512 14.2015C21.4562 11.9334 26.5581 13.352 27.6046 14.2015C28.4418 14.8812 28.8431 15.1382 28.9391 15.1818C26.7044 10.1143 22.1819 9.40611 22.1819 9.40611C13.3223 7.14941 9.48141 16.2026 9.38835 16.4342C8.81001 17.8731 8.60599 19.4583 8.56532 21.0496Z" fill="#FFF4D4"/>
<path d="M31.0713 8.9082C29.0829 9.64013 27.7354 12.6986 27.343 14.0056C25.4788 13.0907 24.2688 13.0253 22.3065 12.96C22.5246 12.2629 19.7883 10.1499 17.0085 10.4766C13.4685 10.8927 11.3506 13.4174 11.1871 13.7442L9.22485 11.5223C15.0854 1.48428 26.231 5.59706 31.0713 8.9082Z" fill="#FFD355"/>
<path d="M31.0713 8.90811C29.0829 9.64005 27.7354 12.6985 27.343 14.0055C25.4788 13.0906 24.2688 13.0252 22.3065 12.9599C22.5246 12.2628 19.7883 10.1498 17.0085 10.4765C13.4685 10.8926 11.3506 13.4174 11.1871 13.7441L9.22485 11.5222C10.8601 9.68144 15.5433 6.37248 21.1946 7.86249L31.0713 8.90811Z" fill="#E2A700"/>
<path d="M31.0716 8.90814C29.0832 9.64007 27.7357 12.6985 27.3433 14.0055C25.4791 13.0906 24.2691 13.0253 22.3068 12.9599C22.5685 10.8164 21.1513 8.52692 20.6716 7.69914C23.5169 6.26141 29.7581 8.0096 31.0716 8.90814Z" fill="#FFC00C"/>
<path fill-rule="evenodd" clip-rule="evenodd" d="M33.297 20.9702L30.0917 20.855L30.0591 20.1688L33.3116 20.3169L33.297 20.9702Z" fill="#007F77"/>
<path fill-rule="evenodd" clip-rule="evenodd" d="M21.8636 16.8836C20.0861 17.1637 18.8516 18.9852 19.1689 21.0002C19.4862 23.0153 21.2207 24.369 22.9982 24.0889C24.7756 23.8089 26.0102 21.9873 25.6929 19.9723C25.3756 17.9572 23.6411 16.6035 21.8636 16.8836ZM18.4731 20.2934C18.507 18.2905 19.8384 16.5411 21.762 16.238C23.9406 15.8948 25.9666 17.5507 26.3321 19.8716C26.3321 19.872 26.3322 19.8725 26.3323 19.873C26.3995 19.8459 26.4728 19.8198 26.5511 19.7971C26.7888 19.7279 27.0882 19.6855 27.4 19.7506C27.4398 18.9338 27.6772 18.1838 28.0636 17.5915C28.5439 16.8552 29.2672 16.3483 30.1272 16.3032C30.9858 16.2583 31.7703 16.685 32.3463 17.3622C32.9224 18.0397 33.3064 18.9834 33.3794 20.0315C33.4524 21.0796 33.2022 22.0586 32.7223 22.7942C32.242 23.5305 31.5187 24.0375 30.6587 24.0825C29.8001 24.1274 29.0156 23.7008 28.4396 23.0235C27.8782 22.3633 27.4992 21.4505 27.4127 20.4345C27.1887 20.3428 26.9512 20.3612 26.7319 20.4249C26.5954 20.4647 26.4761 20.5197 26.3892 20.5663C26.4044 22.6159 25.0594 24.4257 23.0998 24.7345C20.9212 25.0778 18.8952 23.4218 18.5297 21.101C18.5223 21.0541 18.5157 21.0073 18.5098 20.9606L12.8625 20.0507C11.8031 19.9041 10.7457 19.9527 9.9647 20.215C9.18134 20.4781 8.76791 21.4459 8.75548 22.0469L8.10841 22.0314C8.12908 21.0321 8.85452 19.8986 9.75878 19.595C10.6646 19.2908 11.8306 19.2482 12.9523 19.4039L12.9557 19.4044L18.4731 20.2934ZM28.6045 17.952C28.2101 18.5565 27.9881 19.3904 28.0521 20.3103C28.1161 21.2302 28.4525 22.037 28.9302 22.5988C29.408 23.1607 30.0109 23.4621 30.6233 23.43C31.2345 23.398 31.7875 23.0376 32.1814 22.4337C32.5758 21.8293 32.7978 20.9953 32.7338 20.0754C32.6698 19.1556 32.3334 18.3487 31.8557 17.787C31.3779 17.225 30.775 16.9237 30.1626 16.9557C29.5514 16.9877 28.9984 17.3481 28.6045 17.952Z" fill="#2FBBB3"/>
</svg>
