<svg width="50" height="50" viewBox="0 0 50 50" fill="none" xmlns="http://www.w3.org/2000/svg">
<g id="Group 3">
<path id="Union" fill-rule="evenodd" clip-rule="evenodd" d="M6.58154 16.7507H8.39721V29.1199H12.9364V16.7507H14.752V39.9004H12.9364V30.3682H8.39721V39.9004H6.58154V16.7507Z" fill="#1A73E8"/>
<path id="Rectangle 4" d="M9.07812 30.9355H9.53204V39.9003H9.07812V30.9355Z" fill="#1A73E8"/>
<path id="Rectangle 19" d="M9.07812 43.1913H9.53204V47.7304H9.07812V43.1913Z" fill="#1A73E8"/>
<path id="Rectangle 6" d="M11.2346 30.9355H11.6885V39.9003H11.2346V30.9355Z" fill="#1A73E8"/>
<path id="Rectangle 20" d="M11.2346 43.1913H11.6885V47.7304H11.2346V43.1913Z" fill="#1A73E8"/>
<path id="Rectangle 12" d="M12.9365 11.644H13.3904V15.6158H12.9365V11.644Z" fill="#1A73E8"/>
<path id="Rectangle 15" d="M6.58154 11.644H7.03546V15.6158H6.58154V11.644Z" fill="#1A73E8"/>
<path id="Rectangle 23" d="M7.2627 11.644H7.71661V15.6158H7.2627V11.644Z" fill="#1A73E8"/>
<path id="Rectangle 5" d="M9.64575 30.9355H10.0997V39.9003H9.64575V30.9355Z" fill="#1A73E8"/>
<path id="Rectangle 21" d="M9.64575 43.1913H10.0997V47.7304H9.64575V43.1913Z" fill="#1A73E8"/>
<path id="Rectangle 7" d="M11.802 30.9355H12.2559V39.9003H11.802V30.9355Z" fill="#1A73E8"/>
<path id="Rectangle 22" d="M11.802 43.1913H12.2559V47.7304H11.802V43.1913Z" fill="#1A73E8"/>
<path id="Rectangle 13" d="M13.6177 11.644H14.0716V15.6158H13.6177V11.644Z" fill="#1A73E8"/>
<path id="Rectangle 16" d="M7.2627 9.034H7.71661V10.8497H7.2627V9.034Z" fill="#1A73E8"/>
<path id="Rectangle 18" d="M13.6177 9.034H14.0716V10.8497H13.6177V9.034Z" fill="#1A73E8"/>
<path id="Rectangle 14" d="M14.2988 11.644H14.7527V15.6158H14.2988V11.644Z" fill="#1A73E8"/>
<path id="Rectangle 17" d="M7.94385 11.644H8.39776V15.6158H7.94385V11.644Z" fill="#1A73E8"/>
<path id="Subtract" fill-rule="evenodd" clip-rule="evenodd" d="M12.817 10.8497H13.2774V9.034H11.5879C12.2718 9.37118 12.7563 10.0512 12.817 10.8497ZM9.6333 9.034H7.94385V10.8497H8.40421C8.46495 10.0512 8.94944 9.37118 9.6333 9.034ZM11.8021 12.8849C11.9703 12.7772 12.123 12.6473 12.2561 12.4995V28.6659H11.8021V12.8849ZM9.07864 12.6167V28.6659H9.53255V12.9528C9.36697 12.8603 9.2145 12.7471 9.07864 12.6167ZM9.64603 13.012C9.78938 13.0815 9.94137 13.136 10.0999 13.1735V28.6659H9.64603V13.012ZM11.2347 13.1435C11.3943 13.0967 11.5463 13.0324 11.6887 12.9528V28.6659H11.2347V13.1435Z" fill="#1A73E8"/>
<path id="Ellipse 1" d="M12.5963 10.9631C12.5963 12.0286 11.7326 12.8923 10.6672 12.8923C9.60174 12.8923 8.73804 12.0286 8.73804 10.9631C8.73804 9.8977 9.60174 9.034 10.6672 9.034C11.7326 9.034 12.5963 9.8977 12.5963 10.9631Z" fill="#1A73E8"/>
<path id="Ellipse 2" d="M10.8939 10.9632C10.8939 11.0885 10.7922 11.1901 10.6669 11.1901C10.5416 11.1901 10.4399 11.0885 10.4399 10.9632C10.4399 10.8378 10.5416 10.7362 10.6669 10.7362C10.7922 10.7362 10.8939 10.8378 10.8939 10.9632Z" fill="#1A73E8"/>
<path id="Vector 7" d="M10.4966 10.4525V10.6795H10.2696L9.53198 9.60144L10.4966 10.4525Z" fill="#1A73E8"/>
<path id="Vector 8" d="M10.2281 11.1958L10.455 11.1901L10.4606 11.417L9.77441 11.8143L10.2281 11.1958Z" fill="#1A73E8"/>
<path id="Rectangle 24 (Stroke)" fill-rule="evenodd" clip-rule="evenodd" d="M8.0571 6.3105H7.4897V8.35312H8.0571V6.3105ZM7.37622 6.19702V8.4666H8.17057V6.19702H7.37622Z" fill="#1A73E8"/>
<path id="Rectangle 29 (Stroke)" fill-rule="evenodd" clip-rule="evenodd" d="M14.0718 5.85664H7.14961V6.19708H14.0718V5.85664ZM7.03613 5.74316V6.31056H14.1853V5.74316H7.03613Z" fill="#1A73E8"/>
<path id="Rectangle 30 (Stroke)" fill-rule="evenodd" clip-rule="evenodd" d="M14.5251 5.37719L10.6668 4.38505L6.80855 5.37719V5.74311H14.5251V5.37719ZM10.6668 4.26788L14.6386 5.28919V5.85659H6.69507V5.28919L10.6668 4.26788Z" fill="#1A73E8"/>
<path id="Vector 1 (Stroke)" fill-rule="evenodd" clip-rule="evenodd" d="M10.4102 1.34405C10.2071 2.19097 9.98415 3.12049 9.92843 3.42698C9.89315 3.62102 9.87907 3.85839 9.88098 4.0617C9.88194 4.16322 9.88687 4.25522 9.89491 4.3282C9.8996 4.37078 9.90511 4.40427 9.91064 4.4287L10.6674 4.26653L11.3704 4.42877C11.4176 4.29167 11.4692 3.94931 11.3493 3.42958C11.2247 2.88966 10.8694 1.23411 10.6648 0.274858C10.5975 0.563525 10.5061 0.944603 10.4102 1.34405ZM10.302 1.30854C10.4285 0.781311 10.5468 0.288071 10.6116 0L10.7225 0.000647089C10.9116 0.889813 11.3238 2.81457 11.4599 3.40407C11.5977 4.00157 11.52 4.3908 11.4553 4.52025L11.4353 4.56021L10.6665 4.38278L9.84151 4.55957L9.82185 4.52025C9.80255 4.48164 9.79034 4.41526 9.78211 4.34062C9.77355 4.26289 9.76849 4.16694 9.76751 4.06277C9.76555 3.85472 9.77985 3.60981 9.81678 3.40668C9.87295 3.09771 10.0981 2.15891 10.302 1.30854Z" fill="#1A73E8"/>
<path id="Vector 2 (Stroke)" fill-rule="evenodd" clip-rule="evenodd" d="M6.582 8.40991H14.6958V10.6795H15.0362V11.0767H15.7171V15.6158H16.0575V40.4802L19.9158 41.4448V41.943H1.4187V41.4448L5.27699 40.4802V15.6158H5.67417V11.0767H6.24156V10.6795H6.582V8.40991ZM6.69548 8.52339V10.793H6.35504V11.1901H5.78764V15.7293H5.39047V40.5688L1.53218 41.5334V41.8295H19.8023V41.5334L15.944 40.5688V15.7293H15.6036V11.1901H14.9227V10.793H14.5823V8.52339H6.69548Z" fill="#1A73E8"/>
<path id="Rectangle 26 (Stroke)" fill-rule="evenodd" clip-rule="evenodd" d="M9.64587 6.53755H8.85152V8.35322H9.64587V6.53755ZM8.73804 6.42407V8.4667H9.75935V6.42407H8.73804Z" fill="#1A73E8"/>
<path id="Rectangle 27 (Stroke)" fill-rule="evenodd" clip-rule="evenodd" d="M11.1209 6.53755H10.2131V8.35322H11.1209V6.53755ZM10.0996 6.42407V8.4667H11.2344V6.42407H10.0996Z" fill="#1A73E8"/>
<path id="Rectangle 28 (Stroke)" fill-rule="evenodd" clip-rule="evenodd" d="M12.4828 6.53755H11.6884V8.35322H12.4828V6.53755ZM11.575 6.42407V8.4667H12.5963V6.42407H11.575Z" fill="#1A73E8"/>
<path id="Rectangle 25 (Stroke)" fill-rule="evenodd" clip-rule="evenodd" d="M13.8447 6.3105H13.2773V8.35312H13.8447V6.3105ZM13.1638 6.19702V8.4666H13.9582V6.19702H13.1638Z" fill="#1A73E8"/>
<path id="Rectangle 31 (Stroke)" fill-rule="evenodd" clip-rule="evenodd" d="M19.1781 41.943H2.1562V42.2834H19.1781V41.943ZM2.04272 41.8295V42.3969H19.2915V41.8295H2.04272Z" fill="#1A73E8"/>
<path id="Rectangle 32 (Stroke)" fill-rule="evenodd" clip-rule="evenodd" d="M19.1781 42.3968H2.1562V42.8508H19.1781V42.3968ZM2.04272 42.2834V42.9642H19.2915V42.2834H2.04272Z" fill="#1A73E8"/>
<path id="Rectangle 33 (Stroke)" fill-rule="evenodd" clip-rule="evenodd" d="M19.8589 48.2978H1.58882V48.5247H19.8589V48.2978ZM1.47534 48.1843V48.6382H19.9724V48.1843H1.47534Z" fill="#1A73E8"/>
<path id="Rectangle 34 (Stroke)" fill-rule="evenodd" clip-rule="evenodd" d="M20.5395 48.7517H0.907669V49.2056H20.5395V48.7517ZM0.794189 48.6382V49.3191H20.653V48.6382H0.794189Z" fill="#1A73E8"/>
<path id="Rectangle 35 (Stroke)" fill-rule="evenodd" clip-rule="evenodd" d="M21.2206 49.4326H0.113479V49.8865H21.2206V49.4326ZM0 49.3191V50H21.3341V49.3191H0Z" fill="#1A73E8"/>
<path id="Rectangle 36 (Stroke)" fill-rule="evenodd" clip-rule="evenodd" d="M4.42579 43.7586H3.97188V45.1204H4.42579V43.7586ZM3.8584 43.6451V45.2338H4.53927V43.6451H3.8584Z" fill="#1A73E8"/>
<path id="Union_2" fill-rule="evenodd" clip-rule="evenodd" d="M2.26997 43.0777H3.7452V43.5442L3.74387 43.5443C3.68542 43.5483 3.62815 43.5467 3.59293 43.5363C3.55652 43.5256 3.5347 43.505 3.49535 43.4606L3.48885 43.4532C3.45142 43.4107 3.39604 43.3479 3.30374 43.3123C3.20901 43.2758 3.11742 43.2516 3.02204 43.25C2.92537 43.2484 2.83203 43.27 2.73351 43.3149C2.64765 43.3541 2.59974 43.4175 2.56818 43.4593L2.56358 43.4653C2.5304 43.509 2.51333 43.5278 2.48343 43.5397C2.44294 43.5557 2.37382 43.5585 2.30065 43.552C2.29003 43.5511 2.27975 43.55 2.26997 43.5488V43.0777ZM3.85868 43.0777V43.6451C3.85868 43.6451 3.7764 43.6597 3.68846 43.6598V48.0708V48.1276H3.63172H2.38345H2.32671V48.0708V43.6676C2.23478 43.6628 2.15649 43.6451 2.15649 43.6451V43.0777V42.9643H2.26997H3.7452H3.85868V43.0777ZM2.44019 43.665V48.0141H3.57498V43.6489C3.57014 43.6477 3.5654 43.6465 3.5608 43.6451C3.48818 43.6237 3.44748 43.5777 3.40618 43.5311C3.36772 43.4876 3.32872 43.4436 3.26292 43.4182C3.08718 43.3504 2.95197 43.34 2.78063 43.4182C2.72128 43.4453 2.68857 43.4884 2.65614 43.5311C2.62225 43.5757 2.58867 43.62 2.5253 43.6451C2.49982 43.6553 2.47068 43.6615 2.44019 43.665Z" fill="#1A73E8"/>
<path id="Union_3" fill-rule="evenodd" clip-rule="evenodd" d="M12.8234 43.0777H14.2987V43.5442L14.2973 43.5443C14.2389 43.5483 14.1816 43.5467 14.1464 43.5363C14.11 43.5256 14.0882 43.505 14.0488 43.4606L14.0423 43.4532C14.0049 43.4107 13.9495 43.3479 13.8572 43.3123C13.7625 43.2758 13.6709 43.2516 13.5755 43.25C13.4788 43.2484 13.3855 43.27 13.287 43.3149C13.2011 43.3541 13.1532 43.4175 13.1217 43.4593L13.117 43.4653C13.0839 43.509 13.0668 43.5278 13.0369 43.5397C12.9964 43.5557 12.9273 43.5585 12.8541 43.552C12.8435 43.5511 12.8332 43.55 12.8234 43.5488V43.0777ZM14.4121 43.0777V43.6451C14.4121 43.6451 14.3299 43.6597 14.2419 43.6598V48.0708V48.1276H14.1852H12.9369H12.8802V48.0708V43.6676C12.7882 43.6628 12.71 43.6451 12.71 43.6451V43.0777V42.9643H12.8234H14.2987H14.4121V43.0777ZM12.9937 43.665V48.0141H14.1284V43.6489C14.1236 43.6477 14.1189 43.6465 14.1143 43.6451C14.0416 43.6237 14.001 43.5777 13.9597 43.5311C13.9212 43.4876 13.8822 43.4436 13.8164 43.4182C13.6406 43.3504 13.5054 43.34 13.3341 43.4182C13.2747 43.4453 13.242 43.4884 13.2096 43.5311C13.1757 43.5757 13.1421 43.62 13.0788 43.6451C13.0533 43.6553 13.0241 43.6615 12.9937 43.665Z" fill="#1A73E8"/>
<path id="Union_4" fill-rule="evenodd" clip-rule="evenodd" d="M4.65279 43.0777H6.12801V43.5442L6.12669 43.5443C6.06823 43.5483 6.01096 43.5467 5.97574 43.5363C5.93933 43.5256 5.91751 43.505 5.87816 43.4606L5.87167 43.4532C5.83423 43.4107 5.77885 43.3479 5.68655 43.3123C5.59182 43.2758 5.50024 43.2516 5.40486 43.25C5.30818 43.2484 5.21484 43.27 5.11633 43.3149C5.03047 43.3541 4.98256 43.4175 4.951 43.4593L4.94639 43.4653C4.91321 43.509 4.89614 43.5278 4.86625 43.5397C4.82575 43.5557 4.75663 43.5585 4.68346 43.552C4.67284 43.5511 4.66256 43.55 4.65279 43.5488V43.0777ZM6.24149 43.0777V43.6451C6.24149 43.6451 6.15922 43.6597 6.07127 43.6598V48.0708V48.1276H6.01453H4.76626H4.70953V48.0708V43.6676C4.61759 43.6628 4.53931 43.6451 4.53931 43.6451V43.0777V42.9643H4.65279H6.12801H6.24149V43.0777ZM4.823 43.665V48.0141H5.95779V43.6489C5.95295 43.6477 5.94822 43.6465 5.94361 43.6451C5.87099 43.6237 5.8303 43.5777 5.789 43.5311C5.75053 43.4876 5.71154 43.4436 5.64573 43.4182C5.46999 43.3504 5.33479 43.34 5.16344 43.4182C5.10409 43.4453 5.07139 43.4884 5.03896 43.5311C5.00506 43.5757 4.97148 43.62 4.90811 43.6451C4.88263 43.6553 4.85349 43.6615 4.823 43.665Z" fill="#1A73E8"/>
<path id="Union_5" fill-rule="evenodd" clip-rule="evenodd" d="M15.2063 43.0777H16.6815V43.5442L16.6802 43.5443C16.6217 43.5483 16.5644 43.5467 16.5292 43.5363C16.4928 43.5256 16.471 43.505 16.4316 43.4606L16.4251 43.4532C16.3877 43.4107 16.3323 43.3479 16.24 43.3123C16.1453 43.2758 16.0537 43.2516 15.9583 43.25C15.8617 43.2484 15.7683 43.27 15.6698 43.3149C15.5839 43.3541 15.536 43.4175 15.5045 43.4593L15.4999 43.4653C15.4667 43.509 15.4496 43.5278 15.4197 43.5397C15.3792 43.5557 15.3101 43.5585 15.2369 43.552C15.2263 43.5511 15.216 43.55 15.2063 43.5488V43.0777ZM16.795 43.0777V43.6451C16.795 43.6451 16.7127 43.6597 16.6247 43.6598V48.0708V48.1276H16.568H15.3197H15.263V48.0708V43.6676C15.1711 43.6628 15.0928 43.6451 15.0928 43.6451V43.0777V42.9643H15.2063H16.6815H16.795V43.0777ZM15.3765 43.665V48.0141H16.5113V43.6489C16.5064 43.6477 16.5017 43.6465 16.4971 43.6451C16.4245 43.6237 16.3838 43.5777 16.3425 43.5311C16.304 43.4876 16.265 43.4436 16.1992 43.4182C16.0235 43.3504 15.8883 43.34 15.7169 43.4182C15.6576 43.4453 15.6249 43.4884 15.5924 43.5311C15.5585 43.5757 15.5249 43.62 15.4616 43.6451C15.4361 43.6553 15.407 43.6615 15.3765 43.665Z" fill="#1A73E8"/>
<path id="Union_6" fill-rule="evenodd" clip-rule="evenodd" d="M7.03584 43.0777H8.51107V43.5442L8.50974 43.5443C8.45129 43.5483 8.39402 43.5467 8.3588 43.5363C8.32239 43.5256 8.30056 43.505 8.26121 43.4606L8.25472 43.4532C8.21729 43.4107 8.1619 43.3479 8.06961 43.3123C7.97488 43.2758 7.88329 43.2516 7.78791 43.25C7.69124 43.2484 7.5979 43.27 7.49938 43.3149C7.41352 43.3541 7.36561 43.4175 7.33405 43.4593L7.32945 43.4653C7.29627 43.509 7.2792 43.5278 7.2493 43.5397C7.20881 43.5557 7.13969 43.5585 7.06652 43.552C7.05589 43.5511 7.04562 43.55 7.03584 43.5488V43.0777ZM8.62455 43.0777V43.6451C8.62455 43.6451 8.54227 43.6597 8.45433 43.6598V48.0708V48.1276H8.39759H7.14932H7.09258V48.0708V43.6676C7.00064 43.6628 6.92236 43.6451 6.92236 43.6451V43.0777V42.9643H7.03584H8.51107H8.62455V43.0777ZM7.20606 43.665V48.0141H8.34085V43.6489C8.33601 43.6477 8.33127 43.6465 8.32667 43.6451C8.25405 43.6237 8.21335 43.5777 8.17205 43.5311C8.13359 43.4876 8.09459 43.4436 8.02878 43.4182C7.85305 43.3504 7.71784 43.34 7.5465 43.4182C7.48715 43.4453 7.45444 43.4884 7.42201 43.5311C7.38812 43.5757 7.35454 43.62 7.29117 43.6451C7.26569 43.6553 7.23655 43.6615 7.20606 43.665Z" fill="#1A73E8"/>
<path id="Union_7" fill-rule="evenodd" clip-rule="evenodd" d="M17.5893 43.0777H19.0645V43.5442L19.0632 43.5443C19.0048 43.5483 18.9475 43.5467 18.9123 43.5363C18.8759 43.5256 18.854 43.505 18.8147 43.4606L18.8082 43.4532C18.7708 43.4107 18.7154 43.3479 18.6231 43.3123C18.5283 43.2758 18.4368 43.2516 18.3414 43.25C18.2447 43.2484 18.1514 43.27 18.0529 43.3149C17.967 43.3541 17.9191 43.4175 17.8875 43.4593L17.8829 43.4653C17.8497 43.509 17.8327 43.5278 17.8028 43.5397C17.7623 43.5557 17.6932 43.5585 17.62 43.552C17.6094 43.5511 17.5991 43.55 17.5893 43.5488V43.0777ZM19.178 43.0777V43.6451C19.178 43.6451 19.0957 43.6597 19.0078 43.6598V48.0708V48.1276H18.9511H17.7028H17.646V48.0708V43.6676C17.5541 43.6628 17.4758 43.6451 17.4758 43.6451V43.0777V42.9643H17.5893H19.0645H19.178V43.0777ZM17.7595 43.665V48.0141H18.8943V43.6489C18.8895 43.6477 18.8847 43.6465 18.8801 43.6451C18.8075 43.6237 18.7668 43.5777 18.7255 43.5311C18.6871 43.4876 18.6481 43.4436 18.5823 43.4182C18.4065 43.3504 18.2713 43.34 18.1 43.4182C18.0406 43.4453 18.0079 43.4884 17.9755 43.5311C17.9416 43.5757 17.908 43.62 17.8446 43.6451C17.8192 43.6553 17.79 43.6615 17.7595 43.665Z" fill="#1A73E8"/>
<path id="Rectangle 40 (Stroke)" fill-rule="evenodd" clip-rule="evenodd" d="M14.9793 43.7586H14.5253V45.1204H14.9793V43.7586ZM14.4119 43.6451V45.2338H15.0927V43.6451H14.4119Z" fill="#1A73E8"/>
<path id="Rectangle 38 (Stroke)" fill-rule="evenodd" clip-rule="evenodd" d="M6.80861 43.7586H6.35469V45.1204H6.80861V43.7586ZM6.24121 43.6451V45.2338H6.92209V43.6451H6.24121Z" fill="#1A73E8"/>
<path id="Rectangle 41 (Stroke)" fill-rule="evenodd" clip-rule="evenodd" d="M17.3621 43.7586H16.9082V45.1204H17.3621V43.7586ZM16.7947 43.6451V45.2338H17.4756V43.6451H16.7947Z" fill="#1A73E8"/>
<path id="Rectangle 37 (Stroke)" fill-rule="evenodd" clip-rule="evenodd" d="M4.42579 45.9147H3.97188V47.2765H4.42579V45.9147ZM3.8584 45.8012V47.3899H4.53927V45.8012H3.8584Z" fill="#1A73E8"/>
<path id="Rectangle 42 (Stroke)" fill-rule="evenodd" clip-rule="evenodd" d="M14.9793 45.9147H14.5253V47.2765H14.9793V45.9147ZM14.4119 45.8012V47.3899H15.0927V45.8012H14.4119Z" fill="#1A73E8"/>
<path id="Rectangle 39 (Stroke)" fill-rule="evenodd" clip-rule="evenodd" d="M6.80861 45.9147H6.35469V47.2765H6.80861V45.9147ZM6.24121 45.8012V47.3899H6.92209V45.8012H6.24121Z" fill="#1A73E8"/>
<path id="Rectangle 43 (Stroke)" fill-rule="evenodd" clip-rule="evenodd" d="M17.3621 45.9147H16.9082V47.2765H17.3621V45.9147ZM16.7947 45.8012V47.3899H17.4756V45.8012H16.7947Z" fill="#1A73E8"/>
<path id="Rectangle 46 (Stroke)" fill-rule="evenodd" clip-rule="evenodd" d="M12.4828 43.0777H8.85152V47.9573H12.4828V43.0777ZM8.73804 42.9643V48.0708H12.5963V42.9643H8.73804Z" fill="#1A73E8"/>
<path id="Vector 3" d="M19.6323 29.744H17.1357V36.2123C17.1357 36.4581 17.1698 37.0861 17.306 37.6308C17.4762 38.3116 18.1571 39.6734 20.4834 39.9003C22.3444 40.0819 23.9823 39.106 24.5686 38.5953V39.6734H26.9517V29.744H24.5686V35.1342C24.4362 35.3423 24.058 35.8491 23.604 36.2123C23.0367 36.6662 21.9586 37.2903 20.9373 37.4038C20.1202 37.4946 19.7268 36.9499 19.6323 36.6662V29.744Z" fill="#1A73E8"/>
<path id="Vector 4" d="M27.8591 39.6734V29.744H30.2422V33.4888H31.5472L35.519 29.744H39.0368L33.9303 34.7938L39.0368 39.6734H35.519L31.5472 35.9853H30.2422V39.6734H27.8591Z" fill="#1A73E8"/>
<g id="Exclude">
<path fill-rule="evenodd" clip-rule="evenodd" d="M39.4341 29.7435L39.4914 29.744L46.2996 29.8007C46.2997 29.8007 46.2998 29.8007 46.2999 29.8007C46.5663 29.8008 46.9239 29.892 47.2881 30.0733C47.6531 30.2551 48.0287 30.5294 48.3295 30.8997C48.6327 31.2728 48.8102 31.7746 48.9098 32.2458C49.0095 32.7171 49.0326 33.1638 49.0231 33.433V39.6734V39.7301H48.9664H41.8172C41.0105 39.7301 40.2991 39.4705 39.7898 38.9248C39.2809 38.3795 38.9802 37.5555 38.9802 36.4392C38.9802 35.2885 39.3686 34.5191 39.966 34.0388C40.5612 33.5603 41.3557 33.3753 42.1576 33.3753H46.4595C46.456 33.3457 46.4533 33.3132 46.4505 33.2798L46.4499 33.2716C46.4447 33.2086 46.4389 33.1383 46.4279 33.0645C46.4048 32.91 46.3596 32.7467 46.2553 32.6164C46.1902 32.535 46.072 32.4776 45.9351 32.436C45.8182 32.4005 45.6964 32.3788 45.5972 32.3612C45.5833 32.3587 45.5698 32.3563 45.5569 32.354H39.4909H39.4341V32.2973V29.8007V29.7435ZM39.5476 29.8579V32.2405H45.562H45.5671L45.5722 32.2414C45.586 32.2439 45.6007 32.2466 45.6161 32.2493C45.715 32.2668 45.8442 32.2898 45.9681 32.3274C46.1097 32.3705 46.2563 32.436 46.3439 32.5455C46.4666 32.6989 46.5159 32.8855 46.5401 33.0478C46.5517 33.1254 46.5578 33.199 46.5629 33.2614L46.5636 33.2705C46.5691 33.337 46.5736 33.386 46.5816 33.4183L46.5993 33.4888H46.5266H42.1576C41.3708 33.4888 40.6051 33.6706 40.0371 34.1272C39.4713 34.5822 39.0937 35.3163 39.0937 36.4392C39.0937 37.5358 39.3888 38.3289 39.8728 38.8474C40.3564 39.3656 41.0352 39.6167 41.8172 39.6167H48.9096V33.432V33.431L48.9097 33.43C48.919 33.1696 48.8966 32.7317 48.7988 32.2693C48.7008 31.8062 48.5284 31.3244 48.2415 30.9713C47.9522 30.6153 47.5902 30.3506 47.2375 30.1749C46.884 29.9989 46.5438 29.9142 46.2996 29.9142H46.2991L39.5476 29.8579ZM41.7394 36.0748C41.6591 36.1398 41.5902 36.2508 41.5902 36.4392C41.5902 36.8081 41.8574 37.043 42.0012 37.1201H46.4698V35.9853H41.9874C41.9223 35.9853 41.8221 36.0078 41.7394 36.0748ZM41.668 35.9866C41.7744 35.9004 41.9012 35.8718 41.9874 35.8718H46.5266H46.5833V35.9286V37.1769V37.2336H46.5266H41.9874H41.974L41.962 37.2276C41.7999 37.1466 41.4768 36.8773 41.4768 36.4392C41.4768 36.2191 41.5592 36.0748 41.668 35.9866Z" fill="#1A73E8"/>
<path fill-rule="evenodd" clip-rule="evenodd" d="M39.5476 32.2405V29.8579L46.2991 29.9142H46.2996C46.5438 29.9142 46.884 29.9989 47.2375 30.1749C47.5902 30.3506 47.9522 30.6153 48.2415 30.9713C48.5284 31.3244 48.7008 31.8062 48.7988 32.2693C48.8966 32.7317 48.919 33.1696 48.9097 33.43L48.9096 33.431V33.432V39.6167H41.8172C41.0352 39.6167 40.3564 39.3656 39.8728 38.8474C39.3888 38.3289 39.0937 37.5358 39.0937 36.4392C39.0937 35.3163 39.4713 34.5822 40.0371 34.1272C40.6051 33.6706 41.3708 33.4888 42.1576 33.4888H46.5266H46.5993L46.5816 33.4183C46.5736 33.386 46.5691 33.337 46.5636 33.2705L46.5629 33.2614C46.5578 33.199 46.5517 33.1254 46.5401 33.0478C46.5159 32.8855 46.4666 32.6989 46.3439 32.5455C46.2563 32.436 46.1097 32.3705 45.9681 32.3274C45.8442 32.2898 45.715 32.2668 45.6161 32.2493C45.6007 32.2466 45.586 32.2439 45.5722 32.2414L45.5671 32.2405H45.562H39.5476ZM41.668 35.9866C41.7744 35.9004 41.9012 35.8718 41.9874 35.8718H46.5266H46.5833V35.9286V37.1769V37.2336H46.5266H41.9874H41.974L41.962 37.2276C41.7999 37.1466 41.4768 36.8773 41.4768 36.4392C41.4768 36.2191 41.5592 36.0748 41.668 35.9866Z" fill="#1A73E8"/>
</g>
</g>
</svg>
